<?xml version="1.0" encoding="UTF-8"?>
<!DOCTYPE svg PUBLIC "-//W3C//DTD SVG 1.1//EN" "http://www.w3.org/Graphics/SVG/1.1/DTD/svg11.dtd">
<!-- Creator: CorelDRAW 2020 (64-Bit) -->
<svg xmlns="http://www.w3.org/2000/svg" xml:space="preserve" width="450mm" height="70mm" version="1.1" style="shape-rendering:geometricPrecision; text-rendering:geometricPrecision; image-rendering:optimizeQuality; fill-rule:evenodd; clip-rule:evenodd"
viewBox="0 0 45000 7000"
 xmlns:xlink="http://www.w3.org/1999/xlink"
 xmlns:xodm="http://www.corel.com/coreldraw/odm/2003">
 <defs>
  <style type="text/css">
   <![CDATA[
    .fil3 {fill:none}
    .fil0 {fill:#FEFEFE}
    .fil1 {fill:#0084CA}
    .fil2 {fill:#B8D02F}
    .fil4 {fill:#5B5B5B;fill-rule:nonzero}
   ]]>
  </style>
 </defs>
 <g id="Слой_x0020_1">
  <metadata id="CorelCorpID_0Corel-Layer"/>
  <g id="_2110141453520">
   <path class="fil0" d="M4503.61 409.1c1485.31,0 2689.42,1205.75 2689.42,2693.14 0,1487.39 -1292.27,3500.84 -2488.54,3716.11 -1506.74,-70.57 -2890.3,-2228.72 -2890.3,-3716.11 0,-1487.39 1204.1,-2693.14 2689.42,-2693.14z"/>
   <path class="fil1" d="M2785.62 681.76c255.85,-73.5 514.14,-102.42 765.11,-93.98 -60.92,24.1 -119.4,53.02 -180.31,80.73 -70.66,31.33 -134.02,71.09 -194.93,108.45 -124.27,74.7 -243.66,159.04 -348.44,256.64 -15.84,14.46 -23.15,18.07 -37.77,32.53 -62.14,62.66 -131.59,122.91 -187.62,190.38 -137.67,163.86 -266.82,339.78 -358.2,533.77l-90.16 206.04c-46.3,110.85 -77.97,224.11 -104.78,343.4 -32.9,150.61 -63.36,345.81 -58.48,527.75 8.53,319.3 34.11,575.95 102.34,869.94 24.37,106.04 52.39,215.68 85.29,315.69 32.9,100.01 65.79,204.83 107.22,301.23l123.06 278.33c63.35,136.15 132.8,261.47 209.55,389.19 26.8,44.59 49.95,79.53 76.75,122.91 14.62,21.69 24.37,36.15 37.77,59.04 15.84,22.9 26.81,37.36 42.65,60.25 79.19,121.7 169.34,231.34 259.5,344.61 98.69,124.11 214.43,253.03 330.17,361.47 21.93,20.49 29.24,33.74 49.96,53.02 60.92,56.64 119.4,116.88 185.18,167.48 9.75,8.44 17.06,15.67 26.8,24.1l106 92.78c113.31,84.35 220.52,183.14 341.14,259.06 21.93,13.25 36.55,24.1 57.27,38.56l241.22 154.22c6.1,4.82 14.62,9.64 24.37,16.87 -1507.07,-457.86 -2830.18,-1582.04 -3276.1,-3111.07 -372.81,-1279.61 372.82,-2614.64 1665.47,-2983.35l-0.03 -0.04zm473.94 1574.82l0 0c-23.15,-33.74 -63.35,-59.05 -103.56,-57.84 -48.74,1.2 -81.63,8.43 -115.75,45.79 -19.49,21.69 -35.33,48.2 -34.11,85.55l6.09 261.46 -257.07 7.23c-69.45,1.21 -132.8,67.48 -131.58,137.36l25.58 928.99c3.66,127.72 168.13,167.47 246.1,81.93 24.37,-26.51 37.77,-60.24 36.56,-108.44l-20.72 -763.91 268.04 -7.23c-1.22,20.48 -2.44,39.76 -3.66,60.25l0 0c0,19.28 -1.22,39.76 -2.44,59.04 0,20.48 -1.21,39.76 -1.21,60.25 0,19.28 -1.22,39.76 -1.22,59.04 0,20.48 0,39.76 0,60.25 0,19.28 0,39.76 1.22,59.04l0 0c0,39.76 1.21,79.53 2.43,119.29l0 0c2.44,59.05 6.09,119.29 10.97,178.32 2.44,19.28 3.65,39.77 6.09,59.05l0 0c1.22,20.48 3.66,39.76 4.87,59.04 2.44,20.49 4.88,39.76 7.31,59.04l0 0c2.44,20.49 4.88,39.77 7.31,59.05l0 0c4.88,39.76 10.97,79.52 17.06,118.08l0 0c12.19,78.33 25.59,156.64 41.43,234.96l0 0c4.87,19.28 8.53,38.56 12.18,57.84l0 0c13.4,59.04 26.81,116.88 41.43,174.7l0 0c9.74,38.56 20.71,77.12 30.46,114.48l0 0c6.09,19.27 10.96,38.55 17.05,57.83l0 0c4.88,19.28 10.97,38.56 17.06,57.84l0 0c6.09,18.08 10.97,37.36 17.06,56.64l0 0c6.09,19.27 12.18,38.55 18.27,56.63l0 0c6.1,19.28 13.41,38.56 19.5,56.63l0 0c6.09,19.28 13.4,38.56 19.49,56.63l0 0c7.31,19.28 13.4,37.36 20.71,56.64l0 0c6.1,19.28 13.41,37.35 20.72,56.63l0 0c7.31,18.08 14.62,36.15 21.93,55.43l0 0c7.31,18.07 14.62,37.35 21.93,55.43l0 0c7.31,19.28 14.62,37.35 21.93,55.43l0 0c8.53,18.07 15.84,37.35 24.37,55.42l0 0c7.31,18.08 15.84,36.15 23.15,55.43l0 0c8.53,18.08 17.06,36.15 24.37,54.23l0 0c8.52,18.07 17.05,36.14 25.58,54.22l0 0c8.53,18.07 17.06,36.15 25.59,54.22l0 0c8.53,18.08 18.27,36.15 26.8,54.23l0 0c8.53,18.07 18.28,36.14 26.81,54.22l0 0c9.74,16.87 18.27,34.94 28.02,53.02l0 0c8.53,18.07 18.28,34.94 28.02,53.02l0 0c9.75,18.07 18.28,34.94 28.03,53.01l0 0c9.74,18.08 19.49,34.95 29.24,53.02l0 0c9.74,16.87 20.71,34.95 30.46,51.81l0 0c9.74,16.87 19.49,34.95 30.46,51.82l0 0c9.74,16.87 20.71,34.94 30.46,51.81l0 0c10.96,16.87 20.71,33.74 31.67,51.82l0 0c10.97,16.86 20.72,33.73 31.68,50.6l0 0c10.97,16.87 21.93,33.74 32.9,50.61l0 0c10.96,16.87 21.93,33.74 32.9,50.61l0 0c10.96,16.87 21.93,32.53 34.11,49.4l0 0c10.97,16.87 21.93,33.74 34.11,49.41l0 0c10.97,16.87 21.94,33.74 34.12,49.4l0 0c12.18,16.87 23.15,33.74 35.33,49.4l0 0c12.19,15.67 23.15,32.54 35.34,48.2l0 0c12.18,16.87 24.36,32.54 36.55,48.2l0 0c12.18,16.87 24.37,32.53 36.55,48.2l0 0c12.18,15.66 24.37,31.33 36.55,46.99l-222.95 -154.22c-29.24,-20.48 -60.92,-43.38 -88.94,-65.07 -14.62,-12.05 -24.37,-19.28 -38.99,-31.33l-85.29 -67.48c-70.67,-53.01 -307.02,-267.48 -353.32,-319.3l-354.54 -395.21c-88.94,-110.86 -176.65,-225.32 -253.41,-344.61 -119.4,-184.35 -235.14,-378.35 -324.08,-578.36 -152.29,-336.17 -259.5,-669.92 -322.86,-1044.65 -24.37,-139.76 -37.77,-275.92 -40.21,-416.89l-3.65 -139.77c-15.84,-472.32 171.78,-947.05 448.34,-1315.75 74.32,-98.81 160.81,-191.58 252.19,-272.31 188.84,-165.07 354.54,-284.36 588.46,-391.6 146.2,-67.48 302.15,-114.48 456.87,-149.41 24.37,-6.02 51.17,-10.84 77.98,-15.66l-17.06 14.46 0 0 -15.84 15.66 0 0 -17.06 15.67 0 0 -15.83 15.66 0 0 -15.84 15.67 0 0 -15.84 15.66 0 0 -15.84 15.66 0 0 -15.84 16.87 0 0 -15.84 15.67 0 0 -15.84 16.87 0 0 -14.62 16.87 -1.22 0 -14.62 15.66 0 1.21 -14.62 15.66 0 1.21 -15.84 16.87 0 0 -14.62 16.87 0 0 -14.62 16.86 0 0 -14.62 18.08 0 0 -13.4 16.87 -1.22 0 -13.4 18.07 0 0 -14.62 18.08 0 0 -13.41 18.07 0 0 -13.4 18.08 -1.22 0 -13.4 18.07 0 0 -13.4 18.08 0 0 -13.4 18.07 0 0 -13.41 19.28 0 0 -12.18 18.07 0 0 -13.4 19.28 0 0 -12.19 19.28 0 0 -13.4 19.28 0 0 -12.18 19.28 0 0 -12.19 19.28 0 0 -12.18 19.28 0 0 -10.96 19.28 -1.22 0 -10.97 20.48 0 0 -12.18 19.28 0 0 -10.97 20.49 0 0 -10.96 19.28 0 1.2 -10.97 19.28 0 0 -10.96 20.49 0 0 -10.97 20.48 0 0c-7.31,14.46 -14.62,27.71 -20.71,42.17l0 0 -1.22 0 -9.75 20.49 0 0 -9.75 20.48 0 0 -9.74 21.69 0 0 -9.75 20.49 0 0 -9.75 21.68 0 0 -9.74 21.69 0 0 -8.53 21.69 0 0 -9.75 21.69 0 0 -8.53 21.69 0 0 -8.53 21.69 0 0 -8.53 21.69 0 0 -8.52 22.89 0 0 -7.31 21.69 0 0 -8.53 22.9 0 0 -7.31 21.69 0 0 -7.31 22.89 0 0 -7.31 22.9 0 0 -7.31 22.89 0 0 -7.32 22.89 0 0 -7.31 22.9 0 0 -6.09 22.89 0 0 -1.22 4.82 0 0 -1.21 4.82 0 0 -1.22 4.82 0 0 -1.22 4.82 0 0 -1.22 3.62 0 0 -1.22 4.82 0 0 -2.43 9.64 0 0 -1.22 4.82 0 0 -1.22 4.82 0 0 -1.22 3.61 0 0 -1.22 4.82 0 0 -6.09 22.9 0 1.2 -8.53 31.33 0 0 -1.22 4.82 0 0 -4.87 19.28 0 0 -6.09 27.71 0 0 -2.44 8.44 0 0 -2.44 9.64 0 0 -4.87 22.89 0 0c-4.87,19.28 -8.53,37.36 -12.18,56.64l0 0c-2.44,12.04 -4.88,24.09 -8.53,37.35l0.02 -0.19z"/>
   <path class="fil2" d="M6832.92 2940.97l-442.25 12.05 -12.18 -426.53c-1.22,-53.02 -15.84,-89.17 -42.64,-118.09 -28.03,-27.71 -67.02,-37.35 -112.1,-46.99 -88.94,-19.28 -168.12,-40.97 -255.84,-61.46l-255.85 -59.04c-81.64,-21.69 -182.75,-59.04 -253.42,0 -68.23,59.04 -42.64,171.09 -40.2,273.52l24.36 878.38c1.22,30.12 10.97,63.86 -17.05,63.86l-327.74 9.64 -47.51 -1700.13c-2.44,-95.19 -69.45,-144.58 -158.38,-142.17 -52.39,1.2 -196.15,55.43 -254.63,71.09 -82.85,24.1 -582.37,162.66 -622.58,191.58 -30.46,20.48 -60.92,59.04 -58.48,106.03l40.21 1490.47 -289.97 7.23 -20.71 -777.17c-2.44,-78.32 -63.35,-138.55 -138.88,-136.14l-257.07 7.23 -7.31 -267.49c-1.22,-21.69 -9.75,-42.18 -23.15,-60.25 20.71,-100.01 43.86,-198.81 71.88,-297.62 137.67,-494.01 409.36,-915.73 766.33,-1237.43 17.06,-3.62 32.9,-6.03 48.74,-7.23 255.85,-31.33 439.81,-37.35 698.1,2.41 248.54,38.56 454.43,119.29 666.43,220.5 29.25,14.46 64.58,34.94 93.82,53.01 104.78,63.87 214.42,128.93 304.58,212.07 65.8,61.45 134.03,118.08 194.93,183.14 74.33,78.32 140.11,163.86 203.46,251.82 155.94,216.88 263.16,468.71 326.52,726.56 25.59,103.62 106,138.56 174.22,125.31 68.23,-13.25 125.49,-73.5 107.21,-162.65 -53.6,-262.67 -222.95,-654.27 -402.05,-884.41l-281.44 -321.71c-85.28,-95.19 -265.59,-231.34 -370.37,-300.03 -198.59,-131.34 -383.78,-208.44 -606.74,-290.38 -204.67,-73.5 -499.51,-120.5 -735.87,-119.29 600.64,-357.86 1342.61,-480.76 2072.38,-281.95 1410.84,384.37 2239.3,1827.84 1850.65,3223.13 -483.68,1736.26 -2004.16,3007.45 -3720.79,3484.59l-17.05 -18.07c9.74,-6.03 19.49,-13.26 30.45,-20.49 153.51,-106.04 304.59,-210.86 448.35,-328.94 177.87,-145.79 342.35,-302.43 500.73,-468.71 30.46,-32.53 65.79,-63.86 93.82,-97.6l134.02 -160.25c240.01,-280.74 565.31,-786.8 700.54,-1124.18l109.65 -274.72c71.89,-191.57 120.62,-377.14 169.34,-591.61 43.87,-192.78 87.73,-481.96 81.64,-686.79 -1.22,-67.48 -69.45,-125.32 -138.89,-124.11l-1.22 0 0 0.01zm-2470.77 3482.18c-796.78,-1007.3 -1262.18,-2282.09 -1183,-3555.68l227.82 -6.03 20.72 751.86c1.22,49.41 14.62,87.96 38.99,114.47 21.93,22.9 65.79,48.2 107.21,47l559.22 -15.67c175.44,-4.82 149.85,-173.5 146.19,-303.64l-37.77 -1355.52c40.21,-4.82 95.04,-26.51 134.03,-37.35l260.72 -77.12c19.49,-4.82 47.52,-12.05 67.01,-18.07 19.5,-7.23 53.61,-14.46 69.45,-21.69 2.44,97.6 36.55,1629.03 47.52,1685.67 10.96,55.43 63.35,114.47 130.36,112.06l649.38 -16.87c48.74,-1.21 85.29,-32.54 106,-62.66 29.24,-44.58 19.49,-77.12 17.06,-144.58l-26.81 -994.05c95.04,6.03 309.46,86.76 402.06,91.58 3.65,130.14 7.31,259.05 10.96,389.19 2.44,96.4 -6.09,234.96 160.82,231.34l411.79 -12.05c1.22,51.81 -6.09,101.22 -13.4,150.61 -18.28,140.97 -42.65,289.18 -75.54,424.12 -21.93,87.96 -46.3,173.5 -73.11,261.47 -101.12,327.73 -244.88,638.6 -419.1,933.79 -10.96,18.08 -21.93,33.74 -32.89,50.61 -96.26,151.81 -236.36,368.71 -354.54,498.83 -64.58,69.89 -219.3,265.08 -283.87,316.89l-352.11 332.56c-157.16,133.74 -325.29,251.83 -493.42,369.91l-90.16 -56.63c-31.68,-19.28 -59.7,-34.94 -90.16,-56.63l-41.43 -27.72z"/>
   <path class="fil3" d="M3259.56 2256.58c3.66,-13.26 6.09,-25.31 8.53,-37.36"/>
   <path class="fil3" d="M3259.56 2256.58c3.66,-13.26 6.09,-25.31 8.53,-37.36"/>
  </g>
  <path class="fil4" d="M13514.96 4749.22l-434 0 0 -2836.41 -1100.69 0c-4.48,162.23 -10.46,321.52 -17.17,475.67 -7.44,154.89 -13.41,293.53 -17.9,415.95 -11.16,303.85 -29.82,554.62 -55.16,753 -25.37,199.11 -58.19,365.04 -99.2,499.28 -39.52,130.53 -84.99,236.75 -137.96,317.12 -52.94,80.37 -111.09,148.23 -173.73,202.82 -64.89,58.99 -134.97,103.23 -209.56,132.73 -74.56,29.53 -161.81,44.27 -260.24,44.27 -30.59,0 -61.14,-0.75 -92.46,-2.95 -31.35,-2.2 -55.96,-3.68 -73.1,-3.68l0 -413.75 30.59 0c14.91,0.72 26.83,2.2 37.26,2.95 10.46,0.73 25.37,1.48 46.23,1.48 52.21,0 101.43,-8.11 146.93,-23.61 44.73,-16.23 83.52,-40.57 115.57,-73.74 99.2,-95.88 172.27,-267.72 217.77,-514.78 46.22,-246.31 79.04,-578.21 97.67,-995.64 7.47,-140.84 14.91,-327.43 22.38,-559.02 6.71,-231.56 13.42,-444.69 19.4,-638.67l1937.37 0 0 3216.98zm3613.73 -1205.09c0,404.92 -98.44,717.6 -296.04,938.85 -197.64,222 -459.38,332.62 -784.52,332.62 -319.15,0 -572.69,-104.74 -759.87,-313.44 -187.17,-208.7 -290.09,-493.4 -307.23,-854.76l-429.55 0 0 1101.82 -411.62 0 0 -2411.62 411.62 0 0 982.33 438.48 0c33.58,-328.15 143.94,-584.81 332.58,-770.68 187.94,-185.11 429.55,-278.03 725.59,-278.03 343.04,0 608.5,115.06 797.17,345.17 188.67,230.08 283.39,539.84 283.39,927.74zm-425.07 0c0,-306.05 -56.66,-536.13 -170.77,-688.79 -114.08,-153.42 -275.15,-230.12 -482.49,-230.12 -210.29,0 -372.83,77.45 -486.94,232.32 -114.08,154.14 -170.77,383.5 -170.77,686.59 0,300.93 57.42,528.81 172.26,684.43 114.85,155.59 276.65,233.03 485.45,233.03 207.34,0 368.41,-75.21 482.49,-226.4 114.11,-151.18 170.77,-381.3 170.77,-691.06zm2577.18 -854.76c93.99,95.88 167.82,216.09 219.99,362.87 52.21,146.03 78.31,315.65 78.31,508.87 0,185.84 -29.82,357.69 -89.5,516.26 -59.65,157.82 -140.18,290.55 -242.34,398.97 -105.15,112.1 -220.72,196.91 -348.25,253.7 -127.53,56.79 -266.22,85.56 -416.1,85.56 -152.88,0 -293.09,-26.54 -419.86,-78.93 -127.5,-52.35 -236.4,-133.48 -326.6,-243.35 -111.89,-137.19 -196.14,-308.28 -252.07,-514.78 -55.93,-205.77 -84.26,-460.95 -84.26,-765.52 0,-107.7 4.49,-218.32 14.15,-329.67 9.7,-112.1 30.59,-245.58 61.91,-401.2 29.09,-138.64 68.61,-266.96 117.83,-385.7 49.95,-119.49 114.08,-219.8 194.62,-302.4 102.92,-106.19 237.89,-191 404.18,-254.42 167.05,-64.18 387.77,-107.67 662.19,-132.01 97.71,-8.86 202.09,-16.98 313.22,-25.09 111.12,-8.11 196.11,-13.99 254.29,-18.43l0 376.11c-75.32,4.44 -155.86,9.59 -241.61,16.23 -85.78,6.63 -183.46,14.02 -293.82,22.86 -146.16,11.07 -299.79,36.88 -459.37,76.73 -159.58,39.08 -279.64,101.03 -360.91,184.35 -61.17,61.23 -109.63,149.71 -146.16,264.77 -35.8,115.06 -61.17,243.38 -76.09,384.22 107.41,-75.94 222.98,-140.84 345.27,-193.19 123.04,-52.39 255.79,-78.93 398.23,-78.93 131.98,0 257.25,22.14 376.58,65.62 119.33,44.28 224.48,112.86 316.17,206.5zm-117.8 896.8c0,-255.17 -58.18,-451.32 -174.49,-587.76 -116.34,-136.44 -281.89,-205.05 -496.67,-205.05 -117.8,0 -231.91,19.18 -342.27,56.79 -110.36,38.36 -214.02,89.24 -310.96,152.66 -2.99,36.16 -5.98,78.93 -8.97,128.33 -2.99,50.15 -4.45,95.15 -4.45,134.96 0,250.77 20.13,455.03 61.14,612.13 40.26,157.1 96.95,280.24 170.01,369.48 64.9,80.4 134.24,136.44 206.58,167.41 73.06,30.97 152.14,46.47 237.89,46.47 208.79,0 371.36,-78.17 487.7,-235.27 116.31,-156.34 174.49,-369.47 174.49,-640.15zm2773.29 1163.05l-411.61 0 0 -1798.76 -1140.21 1798.76 -376.58 0 0 -2411.62 411.62 0 0 1770.75 1127.52 -1770.75 389.26 0 0 2411.62zm2861.31 0l-411.62 0 0 -1895.36 -585.38 1231.63 -305.78 0 -580.89 -1231.63 0 1895.36 -384.78 0 0 -2411.62 495.9 0 642.04 1339.29 620.45 -1339.29 510.06 0 0 2411.62zm2401.22 -747.82c0,117.26 -23.87,222.72 -70.87,317.84 -47.72,95.16 -111.85,171.85 -193.88,230.84 -96.18,72.29 -198.34,123.17 -307.97,153.42 -109.63,30.22 -249.81,45.72 -422.08,45.72l-817.29 0 0 -2411.62 411.62 0 0 938.09 417.59 0c183.46,0 325.9,9.59 426.57,28.02 101.42,18.45 202.09,64.9 302.75,138.67 84.29,61.94 147.65,140.84 190.16,237.47 42.51,96.6 63.4,203.54 63.4,321.55zm-425.06 4.44c0,-73.02 -12.69,-137.2 -38.03,-192.51 -25.37,-55.31 -67.12,-100.31 -125.31,-134.96 -61.14,-35.41 -131.21,-57.51 -208.79,-64.15 -77.55,-7.39 -189.41,-11.07 -334.81,-11.07l-268.47 0 0 818.6 259.51 0c145.43,0 258.78,-5.88 338.55,-18.42 79.81,-11.79 149.15,-35.41 207.31,-70.06 59.68,-36.89 102.92,-81.13 129.75,-132.01 26.87,-51.63 40.29,-116.53 40.29,-195.42zm1123.03 743.38l-411.62 0 0 -2411.62 411.62 0 0 2411.62zm2518.3 0l-411.62 0 0 -1798.76 -1140.21 1798.76 -376.58 0 0 -2411.62 411.62 0 0 1770.75 1127.52 -1770.75 389.27 0 0 2411.62zm-187.91 -3535.58c0,123.93 -15.68,236.75 -46.23,337.78 -30.59,101.79 -73.83,187.32 -130.52,255.93 -65.63,76.69 -140.19,134.2 -222.95,171.81 -83.52,38.36 -190.16,57.55 -319.19,57.55 -120.06,0 -224.44,-19.91 -313.94,-59.75 -89.47,-39.08 -165.53,-95.87 -226.7,-169.61 -59.65,-71.54 -104.39,-157.82 -134.97,-258.89 -30.56,-101.03 -46.23,-212.37 -46.23,-334.82l353.46 0c0,192.51 30.59,331.9 91.73,416.71 61.91,84.8 153.64,127.57 276.65,127.57 114.84,0 205.08,-42.05 269.21,-125.37 64.13,-83.33 96.21,-223.45 96.21,-418.91l353.47 0zm3731.56 1477.96l-1140.96 0 0 2057.62 -411.62 0 0 -2411.62 1552.58 0 0 354zm2313.19 852.53c0,406.36 -99.17,719.08 -296.78,940.32 -198.37,220.53 -461.6,331.15 -790.45,331.15 -339.32,0 -606.27,-114.3 -800.16,-342.21 -194.65,-227.88 -291.59,-537.65 -291.59,-929.26 0,-402.65 99.93,-715.36 300.53,-938.09 199.86,-223.44 463.82,-334.82 791.22,-334.82 328.85,0 592.08,111.38 790.45,333.34 197.61,222.73 296.78,535.45 296.78,939.57zm-425.04 0c0,-310.48 -57.42,-541.32 -172.26,-692.5 -114.85,-151.19 -278.15,-226.41 -489.93,-226.41 -213.28,0 -378.08,75.22 -493.69,226.41 -115.57,151.18 -172.99,382.02 -172.99,692.5 0,300.93 57.42,528.81 172.99,684.43 115.61,155.59 280.41,233.03 493.69,233.03 210.29,0 373.59,-75.97 489.16,-228.63 115.61,-152.66 173.03,-382.02 173.03,-688.83zm2899.37 -63.42c0,401.2 -97.71,721.28 -292.33,959.5 -195.38,238.19 -442.2,357.69 -740.51,357.69 -120.82,0 -228.19,-14.03 -322.14,-41.29 -93.23,-27.3 -189.41,-69.34 -287.11,-126.88l0 1008.9 -411.62 0 0 -3301.03 411.62 0 0 252.97c102.15,-90.72 216.27,-166.69 340.81,-227.91 125.27,-61.19 261.73,-91.44 408.63,-91.44 281.13,0 499.63,109.14 656.98,328.19 157.35,219.04 235.67,512.55 235.67,881.3zm-425.07 43.52c0,-275.08 -44.74,-488.21 -133.48,-640.15 -89.5,-151.91 -234.17,-227.88 -434.77,-227.88 -116.33,0 -229.68,25.81 -338.55,76.69 -108.87,50.91 -212.52,116.54 -310.22,197.66l0 1365.83c108.13,52.39 200.59,87.77 277.41,106.22 76.82,18.43 164.79,28.02 263.99,28.02 214.02,0 379.57,-76.69 498.14,-230.83 118.56,-154.15 177.48,-379.07 177.48,-675.56zm2853.1 19.9c0,406.36 -99.17,719.08 -296.78,940.32 -198.37,220.53 -461.6,331.15 -790.46,331.15 -339.31,0 -606.27,-114.3 -800.15,-342.21 -194.65,-227.88 -291.59,-537.65 -291.59,-929.26 0,-402.65 99.93,-715.36 300.52,-938.09 199.87,-223.44 463.83,-334.82 791.22,-334.82 328.86,0 592.09,111.38 790.46,333.34 197.61,222.73 296.78,535.45 296.78,939.57zm-425.04 0c0,-310.48 -57.42,-541.32 -172.27,-692.5 -114.84,-151.19 -278.14,-226.41 -489.93,-226.41 -213.28,0 -378.07,75.22 -493.68,226.41 -115.57,151.18 -173,382.02 -173,692.5 0,300.93 57.43,528.81 173,684.43 115.61,155.59 280.4,233.03 493.68,233.03 210.3,0 373.6,-75.97 489.17,-228.63 115.61,-152.66 173.03,-382.02 173.03,-688.83zm2939.61 1784.77l-380.3 0 0 -584.12 -1610.77 0 0 584.12 -380.3 0 0 -924.82 161.08 0c137.95,-224.95 250.54,-517.73 338.55,-879.85 87.24,-362.12 131.25,-757.41 131.25,-1186.63l1498.88 0 0 2066.48 241.61 0 0 924.82zm-653.23 -924.82l0 -1725.74 -702.48 0c-18.63,359.88 -68.61,688.82 -149.15,986.01 -79.77,297.21 -181.2,543.55 -302.75,739.73l1154.38 0z"/>
 </g>
</svg>
