<?xml version="1.0" standalone="no"?>
<!DOCTYPE svg PUBLIC "-//W3C//DTD SVG 20010904//EN"
 "http://www.w3.org/TR/2001/REC-SVG-20010904/DTD/svg10.dtd">
<svg version="1.0" xmlns="http://www.w3.org/2000/svg"
 width="659.000000pt" height="603.000000pt" viewBox="0 0 659.000000 603.000000"
 preserveAspectRatio="xMidYMid meet">

<g transform="translate(0.000000,603.000000) scale(0.100000,-0.100000)"
fill="#000000" stroke="none">
<path d="M1825 5510 c-224 -35 -412 -94 -620 -195 -614 -297 -1040 -866 -1167
-1555 -29 -156 -31 -533 -5 -685 112 -637 472 -1307 988 -1840 491 -505 1085
-881 1784 -1127 77 -27 136 -45 130 -40 -5 5 -82 56 -170 114 -322 211 -708
552 -950 843 -528 633 -852 1350 -941 2085 -22 178 -30 512 -15 635 77 655
422 1222 965 1584 72 47 182 112 245 143 l116 57 -120 0 c-66 -1 -174 -9 -240
-19z m-362 -192 c-32 -28 -78 -72 -103 -96 -25 -25 -75 -69 -112 -99 -36 -29
-93 -80 -125 -111 -32 -31 -88 -82 -123 -112 -36 -30 -76 -67 -90 -81 -33 -34
-510 -400 -510 -392 0 15 87 154 153 243 83 113 289 321 405 409 110 83 227
155 337 207 80 38 197 83 218 84 4 0 -19 -23 -50 -52z"/>
<path d="M2525 5375 c-218 -62 -381 -136 -556 -254 -303 -204 -512 -443 -669
-763 -163 -333 -213 -590 -192 -993 33 -621 233 -1213 606 -1785 107 -165 197
-279 386 -490 172 -192 301 -318 455 -445 93 -76 337 -255 349 -255 2 0 -25
39 -61 88 -448 598 -777 1353 -897 2057 -47 278 -59 422 -60 707 l-1 268 -112
0 -113 0 0 -32 c0 -18 5 -175 10 -348 11 -344 9 -362 -41 -405 -24 -19 -42
-25 -81 -25 -43 0 -54 4 -83 33 -24 24 -35 45 -39 78 -3 24 -9 224 -15 444 -9
373 -9 402 7 434 30 57 69 71 204 71 l118 0 0 130 c0 146 10 179 60 205 41 21
102 19 133 -5 30 -24 24 -36 61 120 102 431 298 797 590 1098 68 70 93 102 80
101 -10 0 -73 -15 -139 -34z"/>
</g>
</svg>
