<svg version="1.1" id="Layer_1" xmlns="http://www.w3.org/2000/svg" xmlns:xlink="http://www.w3.org/1999/xlink" x="0px" y="0px"
	 width="100%" viewBox="0 0 659 603" enable-background="new 0 0 659 603" xml:space="preserve">
<path fill="#FEFEFE" opacity="1.000000" stroke="none" 
	d="
M1.000000,248.000000 
	C1.000000,165.721390 1.000000,83.442780 1.000000,1.000000 
	C137.021393,1.000000 273.042847,1.000000 409.297028,1.350549 
	C407.558533,1.798511 405.560211,1.722532 403.621063,2.025328 
	C397.399994,2.996738 391.200806,4.108224 384.578491,5.106008 
	C376.107178,7.087075 368.050568,9.127800 359.614197,11.127403 
	C341.306671,16.602922 324.084320,23.663830 307.523041,34.229103 
	C317.316315,35.174492 326.186218,35.806698 334.995270,36.920242 
	C371.443512,41.527668 403.845703,56.101414 433.719452,77.021500 
	C448.052155,87.058426 459.706238,99.772736 471.198669,113.154480 
	C478.361359,122.844124 485.804352,131.949097 492.305695,141.682999 
	C496.772675,148.370987 499.932312,155.932175 503.770477,163.470932 
	C504.382782,165.215942 504.868561,166.606232 505.424042,167.968109 
	C510.846497,181.262344 516.295837,194.547180 517.795166,209.317337 
	C516.191345,214.574692 512.677856,217.412674 507.584595,219.022278 
	C499.430878,218.807510 495.162598,215.594971 493.009277,208.355331 
	C492.074249,205.211731 491.107697,202.077515 490.140869,198.545456 
	C479.093719,158.810059 456.958282,126.536926 425.202728,101.504333 
	C384.892059,69.727890 338.645172,55.556709 287.137115,60.208336 
	C281.234924,60.741360 275.399506,62.014290 269.077271,62.860241 
	C252.057739,65.838737 236.096115,70.744865 220.677124,78.404449 
	C204.926071,86.033646 190.651459,95.289230 177.663345,107.047081 
	C167.406265,117.872963 156.283966,127.727310 147.759155,139.467712 
	C125.178391,170.566071 111.838646,205.351120 110.975616,244.225937 
	C110.494247,265.908997 111.246498,287.618408 116.188423,308.800690 
	C120.441429,327.030151 125.980339,344.959595 130.955383,363.402557 
	C137.656479,379.183502 144.352859,394.583618 151.084137,410.335175 
	C159.353348,424.260468 167.587646,437.834290 175.901001,451.729065 
	C183.863907,462.084930 191.747757,472.119812 199.770538,482.469391 
	C207.565811,491.303864 215.222168,499.823639 222.988113,508.649109 
	C229.635757,515.296570 235.729065,522.192932 242.802979,527.866638 
	C258.261505,540.265320 274.218201,552.042969 289.985321,564.044739 
	C289.999237,564.015198 289.934052,564.016418 289.994629,564.287598 
	C290.381226,564.717102 290.707275,564.875488 291.026733,565.001831 
	C291.020111,564.969849 290.954773,564.971802 291.104370,565.184692 
	C291.565552,565.540771 291.877106,565.684082 292.423462,566.063965 
	C295.085815,567.913696 297.513367,569.526855 300.121918,571.425537 
	C314.405792,579.857300 314.405792,579.857300 324.526184,571.396606 
	C332.605194,565.312683 340.364441,559.390686 348.403503,553.241211 
	C355.912231,546.414978 363.141144,539.816162 370.610840,532.997925 
	C375.092010,528.840698 379.744324,525.257935 383.499451,520.901794 
	C397.699371,504.429260 412.221954,488.175171 425.420227,470.918854 
	C434.970795,458.431763 442.619232,444.489899 451.389465,430.981750 
	C457.496155,418.839386 464.179840,407.241638 468.959229,394.906128 
	C475.798981,377.252899 481.246887,359.060364 487.513245,340.807678 
	C492.439087,322.056030 495.602356,303.362396 497.081573,284.076965 
	C494.424286,284.076965 492.608185,284.030823 490.795044,284.084656 
	C480.979706,284.376038 471.166901,284.807526 461.349609,284.966339 
	C452.049377,285.116821 447.595276,280.862793 447.067322,271.509247 
	C446.814178,267.023926 446.911835,262.519958 446.753998,258.027802 
	C446.428802,248.773178 446.038666,239.520828 445.686066,230.542694 
	C433.994415,227.540131 422.767303,224.656876 410.890045,221.606659 
	C410.890045,224.123901 410.850616,225.912048 410.895935,227.698029 
	C411.634735,256.818146 412.416565,285.937225 413.111420,315.058380 
	C413.316254,323.641235 409.079315,327.976105 400.484497,328.252411 
	C383.517303,328.797913 366.550659,329.375183 349.580109,329.787659 
	C346.467468,329.863312 343.337372,329.220703 340.016541,328.629639 
	C335.943268,325.535126 333.712952,321.928802 333.776733,316.945984 
	C333.810577,314.301392 333.289673,311.649658 333.084473,308.535950 
	C331.961609,262.489624 330.773499,216.908463 329.568420,170.676117 
	C321.436310,173.212036 313.718719,175.618698 305.614380,178.013077 
	C300.143555,179.637772 295.059418,181.274719 289.574097,182.922119 
	C287.277527,183.447250 285.382141,183.961914 283.125763,184.574585 
	C284.445435,228.485229 285.760468,272.240814 286.979980,316.382812 
	C284.603638,329.119568 283.138062,330.405609 270.461212,331.214569 
	C269.972778,331.245789 269.492035,331.397217 268.584778,331.384277 
	C261.444397,331.568268 254.726913,331.860657 247.544174,332.090454 
	C241.399597,332.207275 235.720306,332.386688 229.666077,332.438538 
	C225.575607,331.843079 221.860062,331.375153 217.951538,330.621887 
	C215.902115,327.905701 213.160492,325.722656 212.394730,322.986603 
	C211.217514,318.780426 211.114029,314.198273 211.053635,309.768860 
	C210.858917,295.491730 210.972382,281.210480 210.793594,266.933014 
	C210.732117,262.025024 210.160324,257.123444 209.831909,252.367584 
	C202.889145,252.367584 196.448227,252.367584 189.554993,252.287445 
	C181.714172,252.492310 174.325684,252.777283 166.761490,253.069031 
	C167.310715,275.439392 167.757370,297.167328 168.434372,318.888062 
	C168.619156,324.817169 167.097290,329.641693 161.594269,333.047424 
	C150.156830,336.320984 144.176498,332.084229 143.822205,320.890625 
	C143.675537,316.256683 143.308212,311.629700 143.129059,306.537659 
	C142.726547,285.301605 142.238647,264.527466 141.744812,243.753448 
	C141.492798,233.151260 145.315201,229.047119 156.048157,228.394073 
	C158.034607,228.273209 160.017899,228.100647 162.452576,228.028961 
	C164.560059,228.082138 166.218033,228.073807 167.875153,228.031815 
	C174.773911,227.857040 175.480484,227.153229 175.367477,220.428299 
	C175.283905,215.455673 175.053970,210.483810 175.059097,205.511765 
	C175.067291,197.571350 179.867126,192.593552 187.793076,193.241074 
	C190.963272,193.500076 193.961182,195.867676 197.101532,197.639313 
	C197.823074,200.692917 198.849274,203.353378 199.065689,206.078140 
	C199.611847,212.954468 199.793442,219.859741 200.108124,226.480286 
	C207.830338,226.480286 214.934067,226.480286 222.425980,226.587433 
	C231.000671,227.752350 234.545181,232.043137 234.779724,241.534317 
	C235.268478,261.312531 235.669220,281.092926 236.094925,300.872650 
	C236.136673,302.812469 236.100525,304.753906 236.100525,306.732635 
	C245.039963,306.732635 253.246216,306.732635 260.793304,306.732635 
	C260.793304,295.497070 260.793304,284.740967 260.851929,273.522827 
	C260.681793,266.584290 260.408539,260.109009 260.232239,253.631058 
	C259.549286,228.538986 258.988251,203.443100 258.169220,178.355591 
	C257.965820,172.125137 259.708832,167.288773 265.672852,164.137222 
	C271.365570,162.326355 276.686768,160.555084 282.378235,158.777863 
	C299.166962,153.836304 315.520142,148.663101 332.045441,144.115585 
	C336.760681,142.818039 341.975647,143.336411 347.177734,143.279663 
	C353.991425,146.776810 354.017975,152.959335 354.257202,159.471405 
	C355.538025,208.161163 356.888184,256.395111 358.238068,304.619110 
	C367.626648,304.619110 376.578552,304.740997 385.518066,304.463013 
	C386.620941,304.428711 388.597504,302.248657 388.580566,301.086090 
	C388.395966,288.436005 387.861572,275.791534 387.486694,263.143585 
	C386.929138,244.331757 386.243591,225.520935 385.975403,206.704498 
	C385.851776,198.031998 390.929321,193.575119 399.524445,194.049362 
	C402.328247,194.204071 405.100067,194.938431 408.189331,195.610321 
	C425.272369,199.862625 442.059052,203.886124 458.830200,207.973282 
	C466.948914,209.951843 469.914429,213.599243 470.201630,221.991547 
	C470.576996,232.960129 470.989471,243.931259 471.076904,254.903763 
	C471.107208,258.700775 472.036041,260.197693 476.152283,259.955261 
	C485.942261,259.378601 495.758148,259.190125 505.566528,258.989746 
	C518.031555,258.735077 520.761353,261.020721 522.620850,273.445068 
	C521.661987,284.595581 520.860229,295.299805 519.932983,306.385834 
	C518.372131,314.425476 517.060791,322.109070 515.477966,329.736298 
	C510.784637,352.352478 504.096771,374.379639 495.418091,396.138000 
	C487.970795,411.704041 481.537781,427.445435 473.311432,442.186035 
	C464.344055,458.254486 453.714050,473.395050 443.529694,489.112823 
	C430.260986,504.596008 417.957947,520.564636 404.088776,535.031860 
	C390.217651,549.501099 374.780579,562.469116 359.706238,576.185547 
	C348.838440,583.954102 338.255585,591.580200 327.792358,599.367065 
	C326.239166,600.522949 325.250061,602.436829 324.000000,604.000000 
	C216.405792,604.000000 108.811600,604.000000 1.000000,604.000000 
	C1.000000,495.978668 1.000000,387.957184 1.384518,279.657532 
	C2.510493,285.871582 3.094332,292.386444 4.023438,298.851715 
	C6.639087,317.052887 12.433821,334.369507 18.853312,351.515411 
	C26.093493,370.853363 34.889862,389.453918 45.648106,407.060211 
	C51.707916,416.977325 58.500111,426.446960 65.100876,436.434082 
	C75.480156,449.206299 85.720932,461.662598 96.092209,474.423218 
	C104.630188,483.131866 112.923134,491.655487 121.496948,499.886536 
	C125.363174,503.598175 129.789093,506.726807 134.093704,510.426758 
	C139.891541,515.395691 145.356644,520.331360 151.269135,524.655334 
	C160.000763,531.040955 169.050568,536.991577 178.122955,543.434265 
	C192.859543,552.107849 207.438080,560.474670 222.341812,568.999634 
	C245.180588,581.081970 269.008209,589.603088 293.384064,596.810852 
	C292.439606,595.411133 291.196320,594.645813 290.011627,593.798523 
	C274.048340,582.381409 258.002258,571.076721 242.182373,559.464050 
	C236.169067,555.049927 230.680313,549.921143 224.777893,544.832336 
	C210.407410,530.021423 196.211487,515.496277 181.912048,500.650452 
	C168.938477,482.863892 156.068420,465.397980 143.149719,447.568054 
	C142.878708,446.591064 142.713623,445.949646 142.425690,445.369171 
	C131.617676,423.578796 120.798347,401.794037 109.974289,379.629730 
	C104.352554,359.913330 98.113350,340.727844 93.346222,321.183319 
	C90.291939,308.661224 89.409309,295.609436 87.588898,282.339661 
	C83.599663,243.264679 87.055893,205.655609 102.705154,169.673615 
	C103.336197,168.222656 103.481171,166.560318 104.012802,164.665588 
	C104.723984,163.536102 105.335030,162.771988 105.816856,161.933609 
	C112.112221,150.979797 117.489746,139.358047 124.898735,129.220230 
	C134.157578,116.551239 145.083817,105.100830 155.591431,92.998306 
	C175.171326,74.965950 197.168182,61.199944 221.180542,50.230331 
	C211.710724,50.038643 202.424484,49.975151 193.295837,51.143299 
	C182.777054,52.489338 172.397491,54.923153 161.547211,56.934185 
	C146.317627,60.263309 132.169174,65.322578 118.596497,72.938911 
	C95.058914,84.485451 74.846924,99.769676 57.388596,118.945435 
	C45.459831,132.047699 35.140907,146.181458 26.770882,161.712143 
	C14.196644,185.043839 5.804132,209.770050 2.958787,236.251801 
	C2.535375,240.192535 1.664087,244.085129 1.000000,248.000000 
z"/>
<path fill="#FFFFFF" opacity="1.000000" stroke="none" 
	d="
M660.000000,249.000000 
	C660.000000,367.258514 660.000000,485.516998 660.000000,604.000000 
	C549.644775,604.000000 439.289368,604.000000 328.643005,603.655640 
	C339.582764,599.592651 350.813507,595.873901 362.428040,592.079468 
	C371.104584,588.702698 379.373627,585.340332 387.694702,582.112061 
	C411.908081,572.718140 434.610382,560.324158 456.540558,546.588623 
	C470.996246,537.534729 485.240143,527.997009 498.705475,517.550171 
	C511.186584,507.866974 522.713867,496.908875 534.272827,486.097046 
	C543.173523,477.771667 551.471985,468.802368 560.346558,459.974091 
	C563.871399,456.282837 567.420471,452.982056 570.246155,449.148041 
	C581.744080,433.546936 593.454163,418.072571 604.220032,401.972443 
	C610.980774,391.861938 616.201538,380.721680 622.416382,369.868408 
	C625.756958,363.464600 628.794373,357.235840 631.914062,350.640747 
	C635.274475,342.185059 638.552795,334.095703 641.913208,325.631439 
	C644.011353,318.872986 646.027344,312.489502 648.360474,305.897949 
	C650.738647,298.128265 652.799561,290.566589 654.917603,282.587738 
	C656.261536,273.782959 657.548401,265.395355 658.901306,256.581116 
	C659.311584,253.769623 659.655762,251.384811 660.000000,249.000000 
z"/>
<path fill="#0084C9" opacity="1.000000" stroke="none" 
	d="
M1.000000,248.468658 
	C1.664087,244.085129 2.535375,240.192535 2.958787,236.251801 
	C5.804132,209.770050 14.196644,185.043839 26.770882,161.712143 
	C35.140907,146.181458 45.459831,132.047699 57.388596,118.945435 
	C74.846924,99.769676 95.058914,84.485451 118.601173,73.336990 
	C119.041512,75.824684 119.110771,77.971924 118.985077,80.399994 
	C117.904732,81.425667 117.107689,82.323692 116.120918,82.892738 
	C96.778877,94.046844 80.610138,109.017952 65.444191,125.157990 
	C62.635174,128.147430 60.426979,131.701416 57.644176,135.149918 
	C51.560730,144.533203 45.774593,153.761429 39.710438,163.194702 
	C38.191525,166.102081 36.606647,168.712646 35.851467,171.544464 
	C35.460213,173.011597 36.019592,175.551605 37.092632,176.369415 
	C38.267178,177.264557 40.885368,177.403473 42.244301,176.683182 
	C45.125633,175.155930 47.624947,172.891693 50.233173,170.868149 
	C64.320091,159.938934 78.344704,148.928665 92.496819,138.084702 
	C97.163078,134.509216 102.145775,131.346695 107.261215,128.230774 
	C106.174507,137.691589 104.679482,146.900635 103.523575,156.152054 
	C103.162575,159.041382 103.717148,162.045105 103.852600,164.996460 
	C103.481171,166.560318 103.336197,168.222656 102.705154,169.673615 
	C87.055893,205.655609 83.599663,243.264679 87.216064,282.533691 
	C86.205467,284.843903 85.296883,286.461090 85.053391,288.172882 
	C83.869370,296.496735 82.925568,304.854431 81.781158,313.184265 
	C79.561127,329.343109 77.269035,345.492065 74.996811,361.643707 
	C73.137451,374.860565 71.201843,388.067017 69.414734,401.293549 
	C67.847801,412.890564 66.440300,424.509125 64.962364,436.118164 
	C58.500111,426.446960 51.707916,416.977325 45.648106,407.060211 
	C34.889862,389.453918 26.093493,370.853363 18.853312,351.515411 
	C12.433821,334.369507 6.639087,317.052887 4.023438,298.851715 
	C3.094332,292.386444 2.510493,285.871582 1.384518,279.189697 
	C1.000000,268.979095 1.000000,258.958221 1.000000,248.468658 
z"/>
<path fill="#FFFFFF" opacity="1.000000" stroke="none" 
	d="
M445.000000,1.000001 
	C516.594055,1.000000 588.188049,1.000000 660.000000,1.000000 
	C660.000000,73.020744 660.000000,145.041718 659.647400,217.308029 
	C658.902710,214.015320 658.510559,210.477249 658.074646,206.496674 
	C655.721252,194.348740 653.411743,182.643341 651.062866,170.607513 
	C650.965271,169.837906 650.906921,169.398697 650.834167,168.709595 
	C650.556152,168.265060 650.292664,168.070419 650.020996,167.475342 
	C645.931030,150.249634 638.430725,134.870255 630.015320,119.638184 
	C629.986084,119.410789 629.877258,118.965347 629.861450,118.708878 
	C629.576111,118.251572 629.306580,118.050735 628.883789,117.543724 
	C620.797607,105.954796 613.337402,94.299423 604.812378,83.483337 
	C594.088501,69.877579 581.476685,58.031975 567.475098,47.734165 
	C553.536865,37.482925 538.947327,28.433937 523.049255,21.399494 
	C502.014954,12.092387 480.209167,5.877398 457.422119,2.959153 
	C453.265961,2.426888 449.139923,1.659079 445.000000,1.000001 
z"/>
<path fill="#C6D956" opacity="1.000000" stroke="none" 
	d="
M658.118530,206.939178 
	C658.510559,210.477249 658.902710,214.015320 659.647400,217.776688 
	C660.000000,222.024551 660.000000,226.049088 659.582275,230.536835 
	C656.521729,230.261551 653.488037,230.123169 651.294556,228.694641 
	C617.897095,206.945084 584.610229,185.025696 551.296082,163.148193 
	C526.449463,146.831375 501.619781,130.488495 476.706848,114.273575 
	C475.169983,113.273262 472.969299,113.292877 471.077454,112.837967 
	C459.706238,99.772736 448.052155,87.058426 433.719452,77.021500 
	C403.845703,56.101414 371.443512,41.527668 334.995270,36.920242 
	C326.186218,35.806698 317.316315,35.174492 307.523041,34.229103 
	C324.084320,23.663830 341.306671,16.602922 359.569702,11.477023 
	C358.584564,14.388401 359.135437,16.050219 361.754791,17.520769 
	C365.798401,19.790920 369.620361,22.460691 373.503967,25.010250 
	C407.498108,47.327118 441.492981,69.642838 475.471619,91.983238 
	C504.458405,111.041504 533.435059,130.115189 562.395325,149.213699 
	C583.035095,162.825089 603.665405,176.451080 624.250061,190.145523 
	C634.395569,196.895081 644.428162,203.814377 654.187866,210.437057 
	C656.165527,208.677139 657.142029,207.808151 658.118530,206.939178 
z"/>
<path fill="#C4D851" opacity="1.000000" stroke="none" 
	d="
M471.198669,113.154480 
	C472.969299,113.292877 475.169983,113.273262 476.706848,114.273575 
	C501.619781,130.488495 526.449463,146.831375 551.296082,163.148193 
	C584.610229,185.025696 617.897095,206.945084 651.294556,228.694641 
	C653.488037,230.123169 656.521729,230.261551 659.582275,231.000000 
	C660.000000,236.688034 660.000000,242.376083 660.000000,248.532059 
	C659.655762,251.384811 659.311584,253.769623 658.493652,256.578644 
	C656.079346,256.698547 653.912476,256.848175 652.236328,256.012970 
	C644.085327,251.951187 635.859497,247.970581 628.053406,243.303589 
	C618.955078,237.864044 610.259277,231.750580 601.397888,225.915756 
	C571.210083,206.038467 541.040771,186.133072 510.810547,166.320572 
	C508.655304,164.908051 506.064545,164.160034 503.676300,163.103043 
	C499.932312,155.932175 496.772675,148.370987 492.305695,141.682999 
	C485.804352,131.949097 478.361359,122.844124 471.198669,113.154480 
z"/>
<path fill="#C9DC61" opacity="1.000000" stroke="none" 
	d="
M384.993195,5.165661 
	C391.200806,4.108224 397.399994,2.996738 403.621063,2.025328 
	C405.560211,1.722532 407.558533,1.798511 409.764893,1.350549 
	C418.687561,1.000000 427.375122,1.000000 436.532043,1.443883 
	C436.908295,3.803296 436.815216,5.718825 436.720978,7.657846 
	C433.948242,7.927341 431.751312,8.140871 429.554382,8.354401 
	C429.480377,8.750738 429.406372,9.147075 429.332367,9.543411 
	C433.220367,11.029817 437.108337,12.516221 441.207001,14.281626 
	C449.408752,18.609797 457.542877,22.402199 465.362457,26.759184 
	C484.269958,37.294243 501.535919,50.186588 517.303955,64.955849 
	C527.230164,74.253372 536.456360,84.298302 546.132935,94.318947 
	C547.231079,95.973541 548.185608,97.322449 549.156006,98.659821 
	C555.769043,107.773674 562.385437,116.885124 569.147034,126.300415 
	C570.528870,128.735870 571.764404,130.868256 572.653442,132.966171 
	C569.948181,131.140442 567.676758,129.218109 565.215637,127.580910 
	C555.400085,121.051483 545.516968,114.623909 535.674500,108.134872 
	C507.947021,89.854477 480.239441,71.543892 452.500580,53.280815 
	C431.281799,39.310516 409.983551,25.459862 388.865295,11.339686 
	C387.022430,10.107496 386.258362,7.261859 384.993195,5.165661 
z"/>
<path fill="#CDDE6C" opacity="1.000000" stroke="none" 
	d="
M440.996338,14.002621 
	C437.108337,12.516221 433.220367,11.029817 429.332367,9.543411 
	C429.406372,9.147075 429.480377,8.750738 429.554382,8.354401 
	C431.751312,8.140871 433.948242,7.927341 436.720978,7.657846 
	C436.815216,5.718825 436.908295,3.803296 437.000671,1.443883 
	C438.066681,1.000000 439.133331,1.000000 440.781952,1.251768 
	C442.242584,1.335691 443.121307,1.167845 444.000000,1.000000 
	C444.000000,1.000000 444.500000,1.000000 444.750000,1.000001 
	C449.139923,1.659079 453.265961,2.426888 457.422119,2.959153 
	C480.209167,5.877398 502.014954,12.092387 523.049255,21.399494 
	C538.947327,28.433937 553.536865,37.482925 567.475098,47.734165 
	C581.476685,58.031975 594.088501,69.877579 604.812378,83.483337 
	C613.337402,94.299423 620.797607,105.954796 628.953003,117.777832 
	C629.325562,118.624809 629.559509,118.840561 629.877258,118.965347 
	C629.877258,118.965347 629.986084,119.410789 630.000610,120.067673 
	C630.679382,124.898743 628.164062,125.336609 624.695312,124.854065 
	C623.273560,123.137962 622.146729,121.568405 620.977173,119.648666 
	C620.189270,118.014854 619.498474,116.695946 618.690857,115.452911 
	C606.440125,96.598366 592.205139,79.425690 575.164795,64.694611 
	C558.895386,50.629948 541.101990,38.777885 521.500854,29.930681 
	C512.642212,25.932259 503.185883,23.258137 493.785706,19.698097 
	C488.045929,17.939346 482.521149,16.465694 476.645691,14.836189 
	C470.532074,13.457170 464.769104,12.234006 458.588623,10.997934 
	C452.302429,10.222548 446.433716,9.460069 439.923431,8.614236 
	C440.440582,11.211421 440.718445,12.607018 440.996338,14.002621 
z"/>
<path fill="#B2C643" opacity="1.000000" stroke="none" 
	d="
M362.044281,592.155151 
	C350.813507,595.873901 339.582764,599.592651 328.176025,603.655640 
	C326.933319,604.000000 325.866669,604.000000 324.399994,604.000000 
	C325.250061,602.436829 326.239166,600.522949 327.792358,599.367065 
	C338.255585,591.580200 348.838440,583.954102 359.754089,576.575317 
	C360.765167,581.968140 361.404724,587.061707 362.044281,592.155151 
z"/>
<path fill="#C9DC61" opacity="1.000000" stroke="none" 
	d="
M443.625000,1.000000 
	C443.121307,1.167845 442.242584,1.335691 441.181946,1.251768 
	C441.750000,1.000000 442.500000,1.000000 443.625000,1.000000 
z"/>
<path fill="#BDD43E" opacity="1.000000" stroke="none" 
	d="
M354.326477,159.015594 
	C354.017975,152.959335 353.991425,146.776810 347.428162,143.085938 
	C346.472992,141.332703 345.738678,139.651978 344.454742,138.787811 
	C332.341309,130.634872 320.155884,122.588112 307.944183,114.582443 
	C302.549561,111.045883 300.750488,111.923218 298.917023,118.081970 
	C298.002808,121.152946 297.051117,124.736412 294.882690,126.777374 
	C292.193420,129.308594 290.809540,131.591187 290.855011,135.267365 
	C290.874176,136.814240 289.524109,139.527878 288.408905,139.748077 
	C282.235260,140.967117 280.902161,145.184967 281.046661,150.428665 
	C281.123627,153.220428 281.672272,155.999176 282.007996,158.783798 
	C276.686768,160.555084 271.365570,162.326355 265.324341,163.958328 
	C263.220551,159.503998 261.463562,155.267258 260.538300,150.856079 
	C259.058228,143.799713 256.346344,136.693542 259.163574,129.400894 
	C259.801331,127.750015 261.321136,125.420860 262.668457,125.250465 
	C267.051941,124.696083 266.968964,122.056366 266.872681,118.825996 
	C266.823395,117.173325 267.094513,115.264114 267.911896,113.878548 
	C270.445648,109.583557 273.902466,105.741455 275.865356,101.229515 
	C277.524597,97.415596 278.998352,94.383942 284.006134,94.576424 
	C284.006134,92.379341 283.751740,90.524300 284.090637,88.784828 
	C284.339386,87.508049 285.273560,85.431671 286.061646,85.355247 
	C289.406128,85.030937 289.652313,82.733253 290.478241,80.287384 
	C293.039795,72.701569 295.783569,71.860603 302.355133,76.177765 
	C334.669556,97.406593 366.998260,118.613632 399.306580,139.851730 
	C427.455963,158.355927 455.578094,176.901520 483.736694,195.391617 
	C485.774200,196.729538 488.011200,197.763672 490.155457,198.939056 
	C491.107697,202.077515 492.074249,205.211731 493.009277,208.355331 
	C495.162598,215.594971 499.430878,218.807510 507.624451,219.366608 
	C509.655396,221.131805 511.104889,222.703522 512.825684,223.877579 
	C536.899048,240.302063 561.051392,256.611328 585.071655,273.112823 
	C589.311096,276.025208 593.036987,279.685211 596.531860,283.000000 
	C595.234924,283.000000 594.406067,283.006500 593.577332,282.998993 
	C582.817078,282.901550 571.938904,284.701263 561.627014,279.317383 
	C559.162537,278.030640 555.325867,279.179962 552.150635,279.504822 
	C549.411377,279.785034 546.715210,280.486176 543.641479,280.964783 
	C536.447937,278.285187 529.612976,275.641998 522.777954,272.998810 
	C520.761353,261.020721 518.031555,258.735077 505.566528,258.989746 
	C495.758148,259.190125 485.942261,259.378601 476.152283,259.955261 
	C472.036041,260.197693 471.107208,258.700775 471.076904,254.903763 
	C470.989471,243.931259 470.576996,232.960129 470.201630,221.991547 
	C469.914429,213.599243 466.948914,209.951843 458.830200,207.973282 
	C442.059052,203.886124 425.272369,199.862625 408.199249,195.229645 
	C406.408051,192.988586 405.169434,190.944855 403.370178,189.734344 
	C389.360138,180.308701 375.274567,170.993774 361.121094,161.784775 
	C359.107941,160.474884 356.603516,159.919937 354.326477,159.015594 
z"/>
<path fill="#C1D648" opacity="1.000000" stroke="none" 
	d="
M490.140869,198.545456 
	C488.011200,197.763672 485.774200,196.729538 483.736694,195.391617 
	C455.578094,176.901520 427.455963,158.355927 399.306580,139.851730 
	C366.998260,118.613632 334.669556,97.406593 302.355133,76.177765 
	C295.783569,71.860603 293.039795,72.701569 290.478241,80.287384 
	C289.652313,82.733253 289.406128,85.030937 286.061646,85.355247 
	C285.273560,85.431671 284.339386,87.508049 284.090637,88.784828 
	C283.751740,90.524300 284.006134,92.379341 284.006134,94.576424 
	C278.998352,94.383942 277.524597,97.415596 275.865356,101.229515 
	C273.902466,105.741455 270.445648,109.583557 267.911896,113.878548 
	C267.094513,115.264114 266.823395,117.173325 266.872681,118.825996 
	C266.968964,122.056366 267.051941,124.696083 262.668457,125.250465 
	C261.321136,125.420860 259.801331,127.750015 259.163574,129.400894 
	C256.346344,136.693542 259.058228,143.799713 260.538300,150.856079 
	C261.463562,155.267258 263.220551,159.503998 264.952820,163.997910 
	C259.708832,167.288773 257.965820,172.125137 258.169220,178.355591 
	C258.988251,203.443100 259.549286,228.538986 260.232239,253.631058 
	C260.408539,260.109009 260.681793,266.584290 260.480530,273.514374 
	C259.040924,272.656921 257.413818,271.471161 257.118439,270.015228 
	C254.559067,257.399109 252.286758,244.725189 249.838730,232.085953 
	C242.871201,196.112549 235.895706,160.140518 228.772919,124.197777 
	C228.387192,122.251442 226.627686,120.577347 225.610046,118.558052 
	C225.712448,118.339577 226.065247,118.010384 226.289307,117.853386 
	C226.646561,117.363411 226.779739,117.030426 226.960266,116.359474 
	C238.411743,96.108879 252.967880,78.721672 269.533142,62.944157 
	C275.399506,62.014290 281.234924,60.741360 287.137115,60.208336 
	C338.645172,55.556709 384.892059,69.727890 425.202728,101.504333 
	C456.958282,126.536926 479.093719,158.810059 490.140869,198.545456 
z"/>
<path fill="#B7CE30" opacity="1.000000" stroke="none" 
	d="
M340.215332,328.909668 
	C343.337372,329.220703 346.467468,329.863312 349.580109,329.787659 
	C366.550659,329.375183 383.517303,328.797913 400.484497,328.252411 
	C409.079315,327.976105 413.316254,323.641235 413.111420,315.058380 
	C412.416565,285.937225 411.634735,256.818146 410.895935,227.698029 
	C410.850616,225.912048 410.890045,224.123901 410.890045,221.606659 
	C422.767303,224.656876 433.994415,227.540131 445.686066,230.542694 
	C446.038666,239.520828 446.428802,248.773178 446.753998,258.027802 
	C446.911835,262.519958 446.814178,267.023926 447.067322,271.509247 
	C447.595276,280.862793 452.049377,285.116821 461.349609,284.966339 
	C471.166901,284.807526 480.979706,284.376038 490.795044,284.084656 
	C492.608185,284.030823 494.424286,284.076965 497.081573,284.076965 
	C495.602356,303.362396 492.439087,322.056030 487.055969,340.778656 
	C483.285156,341.512329 480.100891,341.654175 477.121155,342.508881 
	C452.415466,349.595612 427.746460,356.810272 403.068665,363.994202 
	C388.581329,368.211578 374.075134,372.366577 359.625763,376.710449 
	C354.600372,378.221222 351.494629,384.165253 352.553619,389.202484 
	C353.094971,391.777496 354.410248,394.743927 353.643738,396.924652 
	C352.036713,401.496521 349.283691,405.665558 346.687927,409.964050 
	C345.582672,409.285431 344.790710,408.642700 343.998413,407.586304 
	C343.332031,403.782196 342.579224,400.406128 342.015503,396.998810 
	C339.975983,384.671570 337.999969,372.333801 336.001099,359.585327 
	C337.529266,350.825684 339.715424,342.569366 337.498016,333.918549 
	C337.152252,332.569733 339.248383,330.595001 340.215332,328.909668 
z"/>
<path fill="#ADC32E" opacity="1.000000" stroke="none" 
	d="
M622.113220,370.043457 
	C616.201538,380.721680 610.980774,391.861938 604.220032,401.972443 
	C593.454163,418.072571 581.744080,433.546936 570.246155,449.148041 
	C567.420471,452.982056 563.871399,456.282837 560.324097,459.566223 
	C559.037354,455.252411 556.084778,456.978119 554.025696,457.566101 
	C528.572937,464.834381 503.172455,472.285675 477.729370,479.588287 
	C466.456482,482.823761 455.117706,485.829865 443.808838,488.940125 
	C453.714050,473.395050 464.344055,458.254486 473.311432,442.186035 
	C481.537781,427.445435 487.970795,411.704041 495.862183,396.174377 
	C498.156830,395.737335 499.843475,395.738892 501.400879,395.290985 
	C534.453735,385.784302 567.573608,376.495178 600.476624,366.493317 
	C608.811890,363.959595 615.296143,366.508606 622.113220,370.043457 
z"/>
<path fill="#B1C82F" opacity="1.000000" stroke="none" 
	d="
M347.001221,410.000000 
	C349.283691,405.665558 352.036713,401.496521 353.643738,396.924652 
	C354.410248,394.743927 353.094971,391.777496 352.553619,389.202484 
	C351.494629,384.165253 354.600372,378.221222 359.625763,376.710449 
	C374.075134,372.366577 388.581329,368.211578 403.068665,363.994202 
	C427.746460,356.810272 452.415466,349.595612 477.121155,342.508881 
	C480.100891,341.654175 483.285156,341.512329 486.831879,341.069092 
	C481.246887,359.060364 475.798981,377.252899 468.959229,394.906128 
	C464.179840,407.241638 457.496155,418.839386 451.163239,430.680725 
	C449.882782,430.515717 449.032196,430.192383 448.331635,430.392944 
	C423.899994,437.389313 399.502533,444.505890 375.043518,451.404510 
	C370.931824,452.564240 369.872803,455.374237 368.934692,458.896362 
	C368.490204,460.565308 367.171906,462.087006 365.989197,463.449493 
	C364.832092,464.782501 363.344025,465.828186 361.627960,466.994904 
	C358.836060,465.326691 356.417419,463.663574 353.999298,461.553345 
	C353.802124,458.655792 353.733826,456.186829 353.385498,453.758026 
	C351.293121,439.166901 349.136414,424.584991 347.001221,410.000000 
z"/>
<path fill="#A7BD2E" opacity="1.000000" stroke="none" 
	d="
M443.529724,489.112854 
	C455.117706,485.829865 466.456482,482.823761 477.729370,479.588287 
	C503.172455,472.285675 528.572937,464.834381 554.025696,457.566101 
	C556.084778,456.978119 559.037354,455.252411 560.015747,459.711548 
	C551.471985,468.802368 543.173523,477.771667 534.272827,486.097046 
	C522.713867,496.908875 511.186584,507.866974 498.705475,517.550171 
	C485.240143,527.997009 470.996246,537.534729 456.540558,546.588623 
	C434.610382,560.324158 411.908081,572.718140 387.694702,582.112061 
	C379.373627,585.340332 371.104584,588.702698 362.428040,592.079468 
	C361.404724,587.061707 360.765167,581.968140 360.077759,576.484863 
	C374.780579,562.469116 390.217651,549.501099 404.088776,535.031860 
	C417.957947,520.564636 430.260986,504.596008 443.529724,489.112854 
z"/>
<path fill="#057CBA" opacity="1.000000" stroke="none" 
	d="
M130.950684,363.021698 
	C125.980339,344.959595 120.441429,327.030151 116.188423,308.800690 
	C111.246498,287.618408 110.494247,265.908997 110.975616,244.225937 
	C111.838646,205.351120 125.178391,170.566071 147.759155,139.467712 
	C156.283966,127.727310 167.406265,117.872963 177.669067,107.489769 
	C177.541122,112.086693 177.201553,116.368279 176.615921,120.615936 
	C174.454117,136.295746 172.197189,151.962402 170.002930,167.637756 
	C168.425949,178.903412 166.852264,190.169800 165.351196,201.445709 
	C164.176056,210.273270 163.114609,219.115982 162.002655,227.951965 
	C160.017899,228.100647 158.034607,228.273209 156.048157,228.394073 
	C145.315201,229.047119 141.492798,233.151260 141.744812,243.753448 
	C142.238647,264.527466 142.726547,285.301605 142.746521,306.613281 
	C141.882248,307.635406 141.213715,308.079010 141.134384,308.610504 
	C138.720978,324.781647 136.442047,340.973419 133.906296,357.124969 
	C133.581436,359.194183 131.967438,361.061066 130.950684,363.021698 
z"/>
<path fill="#B2C92F" opacity="1.000000" stroke="none" 
	d="
M622.416382,369.868408 
	C615.296143,366.508606 608.811890,363.959595 600.476624,366.493317 
	C567.573608,376.495178 534.453735,385.784302 501.400879,395.290985 
	C499.843475,395.738892 498.156830,395.737335 496.086304,395.908752 
	C504.096771,374.379639 510.784637,352.352478 515.477966,329.736298 
	C517.060791,322.109070 518.372131,314.425476 520.325745,306.384888 
	C524.635925,307.516968 528.447144,308.986023 532.214355,310.560150 
	C535.674194,312.005829 538.966492,313.993469 542.541748,314.996460 
	C555.185730,318.543518 568.585693,319.999146 579.297241,328.679413 
	C583.034668,331.708038 587.267517,332.342621 591.898987,332.074585 
	C593.634216,331.974182 595.603271,332.352081 597.150696,333.134796 
	C608.755371,339.004608 620.281311,345.030212 631.831848,351.007080 
	C628.794373,357.235840 625.756958,363.464600 622.416382,369.868408 
z"/>
<path fill="#C7DA5B" opacity="1.000000" stroke="none" 
	d="
M384.578491,5.106003 
	C386.258362,7.261859 387.022430,10.107496 388.865295,11.339686 
	C409.983551,25.459862 431.281799,39.310516 452.500580,53.280815 
	C480.239441,71.543892 507.947021,89.854477 535.674500,108.134872 
	C545.516968,114.623909 555.400085,121.051483 565.215637,127.580910 
	C567.676758,129.218109 569.948181,131.140442 572.921021,133.180939 
	C575.356812,136.286987 577.178406,139.143799 579.034912,142.354858 
	C582.993530,147.558548 586.209106,153.293060 590.967224,157.099442 
	C608.632996,171.231796 626.781311,184.762711 644.835388,198.404388 
	C646.338440,199.540115 648.492432,199.814301 650.343994,200.488770 
	C650.230103,198.325409 650.116272,196.162033 650.001770,193.579041 
	C649.334900,189.773544 648.668640,186.387695 648.001343,182.668671 
	C647.997742,181.891312 647.995239,181.447113 648.165649,180.667480 
	C649.259827,177.200668 650.180969,174.069290 651.102173,170.937927 
	C653.411743,182.643341 655.721252,194.348740 658.074707,206.496658 
	C657.142029,207.808151 656.165527,208.677139 654.187866,210.437057 
	C644.428162,203.814377 634.395569,196.895081 624.250061,190.145523 
	C603.665405,176.451080 583.035095,162.825089 562.395325,149.213699 
	C533.435059,130.115189 504.458405,111.041504 475.471619,91.983238 
	C441.492981,69.642838 407.498108,47.327118 373.503967,25.010250 
	C369.620361,22.460691 365.798401,19.790920 361.754791,17.520769 
	C359.135437,16.050219 358.584564,14.388401 359.949524,11.518145 
	C368.050568,9.127800 376.107178,7.087075 384.578491,5.106003 
z"/>
<path fill="#C1D64A" opacity="1.000000" stroke="none" 
	d="
M503.770477,163.470932 
	C506.064545,164.160034 508.655304,164.908051 510.810547,166.320572 
	C541.040771,186.133072 571.210083,206.038467 601.397888,225.915756 
	C610.259277,231.750580 618.955078,237.864044 628.053406,243.303589 
	C635.859497,247.970581 644.085327,251.951187 652.236328,256.012970 
	C653.912476,256.848175 656.079346,256.698547 658.427612,257.005310 
	C657.548401,265.395355 656.261536,273.782959 654.545044,282.578430 
	C652.529968,282.520782 650.828369,282.285126 649.377808,281.552460 
	C639.922607,276.776733 630.827454,271.113617 621.016357,267.266418 
	C611.402283,263.496521 602.969299,256.683411 592.186829,255.812134 
	C590.828186,255.702347 589.494629,254.591110 588.256836,253.779968 
	C566.603638,239.590149 544.980347,225.354553 523.300049,211.206375 
	C521.707520,210.167145 519.729431,209.718750 517.930603,208.995682 
	C516.295837,194.547180 510.846497,181.262344 505.424042,167.968109 
	C504.868561,166.606232 504.382782,165.215942 503.770477,163.470932 
z"/>
<path fill="#0874AE" opacity="1.000000" stroke="none" 
	d="
M175.821960,451.408112 
	C167.587646,437.834290 159.353348,424.260468 151.407684,410.154114 
	C152.151581,408.603271 152.869736,407.622925 153.023209,406.560944 
	C156.054169,385.587555 159.086365,364.613708 161.932449,343.614807 
	C162.403473,340.139679 162.002518,336.546326 162.004547,333.007629 
	C167.097290,329.641693 168.619156,324.817169 168.434372,318.888062 
	C167.757370,297.167328 167.310715,275.439392 166.761490,253.069031 
	C174.325684,252.777283 181.714172,252.492310 189.539520,252.704742 
	C189.956772,256.049591 189.937149,258.897003 189.715851,262.125397 
	C188.195877,287.820984 190.308762,312.947266 193.314941,338.111328 
	C192.631866,338.925812 192.093170,339.604828 191.981628,340.347961 
	C189.633850,355.990295 187.302719,371.635254 185.032883,387.289062 
	C181.934341,408.657990 178.889709,430.034729 175.821960,451.408112 
z"/>
<path fill="#B9D132" opacity="1.000000" stroke="none" 
	d="
M354.257202,159.471405 
	C356.603516,159.919937 359.107941,160.474884 361.121094,161.784775 
	C375.274567,170.993774 389.360138,180.308701 403.370178,189.734344 
	C405.169434,190.944855 406.408051,192.988586 407.896484,195.027008 
	C405.100067,194.938431 402.328247,194.204071 399.524445,194.049362 
	C390.929321,193.575119 385.851776,198.031998 385.975403,206.704498 
	C386.243591,225.520935 386.929138,244.331757 387.486694,263.143585 
	C387.861572,275.791534 388.395966,288.436005 388.580566,301.086090 
	C388.597504,302.248657 386.620941,304.428711 385.518066,304.463013 
	C376.578552,304.740997 367.626648,304.619110 358.238068,304.619110 
	C356.888184,256.395111 355.538025,208.161163 354.257202,159.471405 
z"/>
<path fill="#027FC1" opacity="1.000000" stroke="none" 
	d="
M65.100876,436.434082 
	C66.440300,424.509125 67.847801,412.890564 69.414734,401.293549 
	C71.201843,388.067017 73.137451,374.860565 74.996811,361.643707 
	C77.269035,345.492065 79.561127,329.343109 81.781158,313.184265 
	C82.925568,304.854431 83.869370,296.496735 85.053391,288.172882 
	C85.296883,286.461090 86.205467,284.843903 87.180328,282.989105 
	C89.409309,295.609436 90.291939,308.661224 93.346222,321.183319 
	C98.113350,340.727844 104.352554,359.913330 109.640793,379.815491 
	C107.875710,388.417969 106.275185,396.430969 105.039101,404.499817 
	C103.292969,415.898193 101.731224,427.326813 100.247879,438.762878 
	C98.720879,450.535461 97.382576,462.332520 95.961708,474.118866 
	C85.720932,461.662598 75.480156,449.206299 65.100876,436.434082 
z"/>
<path fill="#0875B0" opacity="1.000000" stroke="none" 
	d="
M162.452560,228.028961 
	C163.114609,219.115982 164.176056,210.273270 165.351196,201.445709 
	C166.852264,190.169800 168.425949,178.903412 170.002930,167.637756 
	C172.197189,151.962402 174.454117,136.295746 176.615921,120.615936 
	C177.201553,116.368279 177.541122,112.086693 177.987915,107.377991 
	C190.651459,95.289230 204.926071,86.033646 220.662750,78.794884 
	C220.321457,82.667297 219.538803,86.211922 219.029480,89.795387 
	C217.036469,103.817940 215.038620,117.841171 213.253174,131.890915 
	C212.788300,135.549133 213.086090,139.304260 213.014923,143.389709 
	C211.336823,148.508728 209.677429,153.252914 207.757263,158.253174 
	C204.010193,171.431305 200.523849,184.353378 197.037521,197.275452 
	C193.961182,195.867676 190.963272,193.500076 187.793076,193.241074 
	C179.867126,192.593552 175.067291,197.571350 175.059097,205.511765 
	C175.053970,210.483810 175.283905,215.455673 175.367477,220.428299 
	C175.480484,227.153229 174.773911,227.857040 167.875153,228.031815 
	C166.218033,228.073807 164.560059,228.082138 162.452560,228.028961 
z"/>
<path fill="#C4D852" opacity="1.000000" stroke="none" 
	d="
M208.018021,157.997116 
	C209.677429,153.252914 211.336823,148.508728 213.275894,143.161041 
	C217.539612,134.630554 221.523651,126.703537 225.507675,118.776527 
	C226.627686,120.577347 228.387192,122.251442 228.772919,124.197777 
	C235.895706,160.140518 242.871201,196.112549 249.838730,232.085953 
	C252.286758,244.725189 254.559067,257.399109 257.118439,270.015228 
	C257.413818,271.471161 259.040924,272.656921 260.421936,273.976410 
	C260.793304,284.740967 260.793304,295.497070 260.793304,306.732635 
	C253.246216,306.732635 245.039963,306.732635 236.100525,306.732635 
	C236.100525,304.753906 236.136673,302.812469 236.094925,300.872650 
	C235.669220,281.092926 235.268478,261.312531 234.779724,241.534317 
	C234.545181,232.043137 231.000671,227.752350 222.412384,226.213165 
	C218.626221,207.864990 215.318878,189.983078 211.806122,172.141602 
	C210.865341,167.363388 209.297821,162.708572 208.018021,157.997116 
z"/>
<path fill="#ADC32E" opacity="1.000000" stroke="none" 
	d="
M362.001221,467.000000 
	C363.344025,465.828186 364.832092,464.782501 365.989197,463.449493 
	C367.171906,462.087006 368.490204,460.565308 368.934692,458.896362 
	C369.872803,455.374237 370.931824,452.564240 375.043518,451.404510 
	C399.502533,444.505890 423.899994,437.389313 448.331635,430.392944 
	C449.032196,430.192383 449.882782,430.515717 450.889648,430.895782 
	C442.619232,444.489899 434.970795,458.431763 425.420227,470.918854 
	C412.221954,488.175171 397.699371,504.429260 383.499451,520.901794 
	C379.744324,525.257935 375.092010,528.840698 370.275513,532.759155 
	C367.798035,517.528992 365.846283,502.324249 364.018738,487.104584 
	C363.215881,480.418732 362.665955,473.702454 362.001221,467.000000 
z"/>
<path fill="#BDD43E" opacity="1.000000" stroke="none" 
	d="
M287.075470,315.996399 
	C285.760468,272.240814 284.445435,228.485229 283.125763,184.574585 
	C285.382141,183.961914 287.277527,183.447250 289.581635,183.362549 
	C290.036591,185.120407 289.907532,186.481949 290.154877,187.771240 
	C295.502777,215.646210 300.978607,243.496902 306.247681,271.386658 
	C310.553436,294.177246 314.711243,316.996948 318.738220,339.838348 
	C319.853088,346.162079 320.266937,352.609406 320.991943,359.421783 
	C320.894592,364.743378 321.249084,369.704956 320.575378,374.522705 
	C320.073456,378.111542 318.241058,381.514343 316.999878,384.592163 
	C315.449341,378.697601 314.072723,373.152069 312.237396,367.762726 
	C311.738281,366.297150 309.738831,364.171295 308.629395,364.286591 
	C303.714111,364.797455 301.650726,361.827087 299.510437,358.340210 
	C298.842651,357.252289 297.199249,356.763214 296.000702,355.582397 
	C293.960846,343.503998 291.995850,331.829376 289.795563,320.199249 
	C289.508331,318.681122 288.011841,317.391724 287.075470,315.996399 
z"/>
<path fill="#057AB8" opacity="1.000000" stroke="none" 
	d="
M96.092209,474.423218 
	C97.382576,462.332520 98.720879,450.535461 100.247879,438.762878 
	C101.731224,427.326813 103.292969,415.898193 105.039101,404.499817 
	C106.275185,396.430969 107.875710,388.417969 109.647041,380.194275 
	C120.798347,401.794037 131.617676,423.578796 142.425690,445.369171 
	C142.713623,445.949646 142.878708,446.591064 142.759033,447.647705 
	C141.947174,448.871674 141.182480,449.606873 141.055084,450.439514 
	C140.185806,456.120758 139.348373,461.810760 138.692139,467.519958 
	C137.060608,481.713684 135.531372,495.919159 133.961060,510.119934 
	C129.789093,506.726807 125.363174,503.598175 121.496948,499.886536 
	C112.923134,491.655487 104.630188,483.131866 96.092209,474.423218 
z"/>
<path fill="#B6CC37" opacity="1.000000" stroke="none" 
	d="
M631.914062,350.640747 
	C620.281311,345.030212 608.755371,339.004608 597.150696,333.134796 
	C595.603271,332.352081 593.634216,331.974182 591.898987,332.074585 
	C587.267517,332.342621 583.034668,331.708038 579.297241,328.679413 
	C568.585693,319.999146 555.185730,318.543518 542.541748,314.996460 
	C538.966492,313.993469 535.674194,312.005829 532.214355,310.560150 
	C528.447144,308.986023 524.635925,307.516968 520.451172,306.003082 
	C520.860229,295.299805 521.661987,284.595581 522.620850,273.445068 
	C529.612976,275.641998 536.447937,278.285187 543.693237,281.309692 
	C545.115051,282.482056 546.035645,283.444977 547.152771,284.036560 
	C555.065613,288.226715 563.019043,292.339996 570.958679,296.479431 
	C575.051941,298.613434 578.926941,301.533386 583.277161,302.737091 
	C595.424072,306.098206 607.115051,309.842621 617.943665,316.893005 
	C624.924683,321.438232 633.803101,323.069275 641.831116,326.006378 
	C638.552795,334.095703 635.274475,342.185059 631.914062,350.640747 
z"/>
<path fill="#BAD236" opacity="1.000000" stroke="none" 
	d="
M321.002441,359.000000 
	C320.266937,352.609406 319.853088,346.162079 318.738220,339.838348 
	C314.711243,316.996948 310.553436,294.177246 306.247681,271.386658 
	C300.978607,243.496902 295.502777,215.646210 290.154877,187.771240 
	C289.907532,186.481949 290.036591,185.120407 289.982849,183.352097 
	C295.059418,181.274719 300.143555,179.637772 305.614014,178.444977 
	C307.730133,188.973648 309.286285,199.091644 311.222198,209.136444 
	C317.096893,239.618195 323.058075,270.083771 329.178558,300.516876 
	C329.774994,303.482483 331.707123,306.179474 333.019226,309.001160 
	C333.289673,311.649658 333.810577,314.301392 333.776733,316.945984 
	C333.712952,321.928802 335.943268,325.535126 340.016571,328.629639 
	C339.248383,330.595001 337.152252,332.569733 337.498016,333.918549 
	C339.715424,342.569366 337.529266,350.825684 335.629150,359.542175 
	C332.962585,359.417145 330.686035,358.641968 328.370789,358.500305 
	C325.933990,358.351257 323.460114,358.807983 321.002441,359.000000 
z"/>
<path fill="#BDD343" opacity="1.000000" stroke="none" 
	d="
M517.795166,209.317337 
	C519.729431,209.718750 521.707520,210.167145 523.300049,211.206375 
	C544.980347,225.354553 566.603638,239.590149 588.256836,253.779968 
	C589.494629,254.591110 590.828186,255.702347 592.186829,255.812134 
	C602.969299,256.683411 611.402283,263.496521 621.016357,267.266418 
	C630.827454,271.113617 639.922607,276.776733 649.377808,281.552460 
	C650.828369,282.285126 652.529968,282.520782 654.487976,282.995605 
	C652.799561,290.566589 650.738647,298.128265 648.314575,305.540039 
	C644.554260,303.265869 641.376221,299.899414 637.718018,299.253876 
	C627.418762,297.436493 617.907043,294.193573 609.063477,288.572540 
	C605.358459,286.217621 601.039734,284.828308 597.000000,283.000000 
	C593.036987,279.685211 589.311096,276.025208 585.071655,273.112823 
	C561.051392,256.611328 536.899048,240.302063 512.825684,223.877579 
	C511.104889,222.703522 509.655396,221.131805 508.039856,219.400650 
	C512.677856,217.412674 516.191345,214.574692 517.795166,209.317337 
z"/>
<path fill="#CADC64" opacity="1.000000" stroke="none" 
	d="
M189.917526,261.744446 
	C189.937149,258.897003 189.956772,256.049591 189.991852,252.784882 
	C196.448227,252.367584 202.889145,252.367584 209.831909,252.367584 
	C210.160324,257.123444 210.732117,262.025024 210.793594,266.933014 
	C210.972382,281.210480 210.858917,295.491730 211.053635,309.768860 
	C211.114029,314.198273 211.217514,318.780426 212.394730,322.986603 
	C213.160492,325.722656 215.902115,327.905701 217.645660,330.876343 
	C217.429474,332.704224 216.936768,334.108673 217.281693,335.262787 
	C221.871780,350.621796 221.734711,366.422974 222.123047,382.217468 
	C222.241348,387.029327 223.726212,391.826477 224.764771,396.591248 
	C225.712967,400.941467 226.939194,405.230225 227.980453,409.561127 
	C229.857925,417.369965 231.622482,425.206940 233.612411,432.986572 
	C233.902267,434.119812 235.175629,435.001465 235.995834,436.438965 
	C237.000061,451.248230 238.002350,465.618042 238.715057,479.794983 
	C235.630646,474.036072 232.835815,468.470032 230.015869,462.534332 
	C225.334229,450.089935 220.677658,438.015167 216.018158,425.522034 
	C216.643387,419.875275 218.334213,414.512360 217.692383,409.444855 
	C216.037460,396.378571 213.476746,383.419342 211.050552,370.459930 
	C205.860565,342.738068 200.561356,315.036499 195.231781,287.341064 
	C193.585251,278.784851 191.695770,270.275330 189.917526,261.744446 
z"/>
<path fill="#0A70A6" opacity="1.000000" stroke="none" 
	d="
M175.901001,451.729065 
	C178.889709,430.034729 181.934341,408.657990 185.032883,387.289062 
	C187.302719,371.635254 189.633850,355.990295 191.981628,340.347961 
	C192.093170,339.604828 192.631866,338.925812 193.443146,338.527100 
	C195.101654,345.999176 195.867035,353.262421 197.558273,360.303284 
	C201.850037,378.170441 206.556747,395.937897 211.129944,413.984436 
	C211.268555,414.544739 211.469269,414.787567 211.885254,415.272156 
	C212.079834,416.041931 212.153900,416.491547 211.839432,417.012756 
	C210.634781,419.473053 209.469604,421.805267 209.071671,424.261749 
	C208.096222,430.283447 207.502396,436.366150 206.704849,442.417694 
	C205.154037,454.184662 203.633224,465.956512 201.920822,477.700195 
	C201.692932,479.263092 200.420395,480.673615 199.631622,482.154724 
	C191.747757,472.119812 183.863907,462.084930 175.901001,451.729065 
z"/>
<path fill="#0874AE" opacity="1.000000" stroke="none" 
	d="
M134.093719,510.426758 
	C135.531372,495.919159 137.060608,481.713684 138.692139,467.519958 
	C139.348373,461.810760 140.185806,456.120758 141.055084,450.439514 
	C141.182480,449.606873 141.947174,448.871674 142.807678,448.011719 
	C156.068420,465.397980 168.938477,482.863892 181.756866,501.007874 
	C180.469620,509.254913 179.075638,516.802490 178.048035,524.399597 
	C177.207932,530.610535 175.096909,536.877441 177.964874,543.127502 
	C169.050568,536.991577 160.000763,531.040955 151.269135,524.655334 
	C145.356644,520.331360 139.891541,515.395691 134.093719,510.426758 
z"/>
<path fill="#B6C94C" opacity="1.000000" stroke="none" 
	d="
M324.206360,571.558533 
	C314.405792,579.857300 314.405792,579.857300 300.140717,570.958740 
	C299.211273,560.306885 298.561798,550.396484 297.646454,540.510742 
	C296.549438,528.662842 295.225616,516.835999 294.353607,504.963623 
	C299.717346,502.453033 300.827393,498.300110 299.570679,493.262817 
	C298.732422,489.902954 298.600159,486.989410 301.197968,484.041779 
	C303.538452,481.386200 305.096741,478.041229 307.363983,475.068665 
	C309.153900,479.622284 310.605530,484.099579 311.999176,488.594879 
	C313.692078,494.055328 315.336060,499.530945 317.000977,505.433319 
	C318.333649,516.973755 319.848541,528.062927 320.944336,539.193420 
	C321.896790,548.867432 322.346100,558.590393 323.103119,568.285095 
	C323.190033,569.398132 323.825317,570.468445 324.206360,571.558533 
z"/>
<path fill="#C4D851" opacity="1.000000" stroke="none" 
	d="
M248.009445,332.153046 
	C254.726913,331.860657 261.444397,331.568268 268.584991,331.774078 
	C270.004272,338.270294 271.172028,344.245880 271.959686,350.271179 
	C273.451385,361.681976 274.667969,373.128540 276.114471,384.545563 
	C276.784485,389.833618 278.675323,394.989868 276.241364,400.422333 
	C275.589935,401.876343 276.697510,404.118469 276.998169,406.439758 
	C277.183319,408.965942 277.426697,411.047943 277.539459,413.136993 
	C277.734802,416.755280 277.849213,420.377960 277.600952,423.950867 
	C275.928009,423.603851 274.474121,422.751404 273.403839,423.094757 
	C266.022797,425.462738 265.299347,420.735168 264.893463,415.462830 
	C264.832001,414.664398 264.613281,413.723694 264.119507,413.146088 
	C263.185089,412.052917 261.998291,411.175476 260.916351,410.208405 
	C259.954742,411.435547 258.419617,412.560394 258.177856,413.915924 
	C257.881073,415.579987 258.902435,417.435547 258.911285,419.210571 
	C258.919220,420.804688 258.328064,422.401764 257.992615,423.588623 
	C256.656128,409.045746 255.346680,394.910004 253.994049,380.778412 
	C253.066269,371.085510 252.219177,361.381592 251.068604,351.714447 
	C250.289139,345.165375 249.045486,338.671570 248.009445,332.153046 
z"/>
<path fill="#B9D132" opacity="1.000000" stroke="none" 
	d="
M333.084473,308.535950 
	C331.707123,306.179474 329.774994,303.482483 329.178558,300.516876 
	C323.058075,270.083771 317.096893,239.618195 311.222198,209.136444 
	C309.286285,199.091644 307.730133,188.973648 306.000732,178.457245 
	C313.718719,175.618698 321.436310,173.212036 329.568420,170.676117 
	C330.773499,216.908463 331.961609,262.489624 333.084473,308.535950 
z"/>
<path fill="#C5D85B" opacity="1.000000" stroke="none" 
	d="
M247.544174,332.090454 
	C249.045486,338.671570 250.289139,345.165375 251.068604,351.714447 
	C252.219177,361.381592 253.066269,371.085510 253.994049,380.778412 
	C255.346680,394.910004 256.656128,409.045746 257.986206,423.975647 
	C257.325165,427.514801 256.661987,430.257996 255.615845,432.995300 
	C250.155411,432.659210 245.077911,432.329010 240.000092,431.564606 
	C238.061874,421.183105 237.832123,411.179016 238.984558,401.126190 
	C239.040543,400.637756 238.983398,400.128265 238.921753,399.635712 
	C237.960648,391.956360 236.488861,384.301636 236.128723,376.594757 
	C235.433060,361.707916 233.323441,347.068909 230.041000,332.566071 
	C235.720306,332.386688 241.399597,332.207275 247.544174,332.090454 
z"/>
<path fill="#126996" opacity="1.000000" stroke="none" 
	d="
M230.040970,462.903992 
	C232.835815,468.470032 235.630646,474.036072 238.748215,480.155457 
	C248.218933,498.972076 258.033691,516.846191 269.952728,533.845642 
	C275.946381,542.592041 281.918427,550.993958 287.789948,559.465515 
	C288.745178,560.843628 289.255463,562.530273 289.971405,564.074280 
	C274.218201,552.042969 258.261505,540.265320 242.802979,527.866638 
	C235.729065,522.192932 229.635757,515.296570 223.056168,508.225220 
	C223.331161,506.390228 223.776138,505.303955 223.944672,504.176361 
	C226.000320,490.422455 228.015381,476.662415 230.040970,462.903992 
z"/>
<path fill="#B2C643" opacity="1.000000" stroke="none" 
	d="
M324.526184,571.396606 
	C323.825317,570.468445 323.190033,569.398132 323.103119,568.285095 
	C322.346100,558.590393 321.896790,548.867432 320.944336,539.193420 
	C319.848541,528.062927 318.333649,516.973755 317.304810,505.285126 
	C319.889954,501.906464 322.153595,499.094788 324.463593,496.321777 
	C325.086975,495.573364 325.735931,494.586823 326.569733,494.316956 
	C330.688599,492.983765 330.242493,489.726593 329.887329,486.626312 
	C329.628021,484.362976 328.485565,482.122833 328.605103,479.919403 
	C328.696167,478.241241 330.150787,476.637085 331.281006,475.241241 
	C334.709229,485.988342 337.855225,496.494171 341.002014,507.417603 
	C341.670258,511.875946 342.373077,515.911255 342.998505,519.958435 
	C344.724213,531.125854 346.417542,542.298218 348.123657,553.468628 
	C340.364441,559.390686 332.605194,565.312683 324.526184,571.396606 
z"/>
<path fill="#BACC55" opacity="1.000000" stroke="none" 
	d="
M289.985321,564.044739 
	C289.255463,562.530273 288.745178,560.843628 287.789948,559.465515 
	C281.918427,550.993958 275.946381,542.592041 269.976135,533.348022 
	C269.630035,527.018555 269.315613,521.508057 269.354675,515.961853 
	C274.698090,512.606873 276.700134,506.738434 275.789948,500.472504 
	C275.288910,497.023438 274.728119,492.717529 276.289673,490.003662 
	C280.281647,483.065948 280.733063,476.206512 279.286621,468.648590 
	C278.971039,466.999512 281.032196,464.895630 282.325928,463.177368 
	C283.769836,467.424927 284.893433,471.494446 286.002075,475.568054 
	C288.671753,485.377686 291.334473,495.189240 294.000000,505.000000 
	C295.225616,516.835999 296.549438,528.662842 297.646454,540.510742 
	C298.561798,550.396484 299.211273,560.306885 299.959717,570.673157 
	C297.513367,569.526855 295.085815,567.913696 292.248901,565.862244 
	C291.544647,565.273193 291.249695,565.122498 290.954773,564.971802 
	C290.954773,564.971802 291.020111,564.969849 291.028625,564.662415 
	C290.669434,564.242126 290.301727,564.129272 289.934052,564.016479 
	C289.934052,564.016418 289.999237,564.015198 289.985321,564.044739 
z"/>
<path fill="#0778B4" opacity="1.000000" stroke="none" 
	d="
M161.594269,333.047424 
	C162.002518,336.546326 162.403473,340.139679 161.932449,343.614807 
	C159.086365,364.613708 156.054169,385.587555 153.023209,406.560944 
	C152.869736,407.622925 152.151581,408.603271 151.372787,409.802673 
	C144.352859,394.583618 137.656479,379.183502 130.955383,363.402557 
	C131.967438,361.061066 133.581436,359.194183 133.906296,357.124969 
	C136.442047,340.973419 138.720978,324.781647 141.134384,308.610504 
	C141.213715,308.079010 141.882248,307.635406 142.658691,307.075195 
	C143.308212,311.629700 143.675537,316.256683 143.822205,320.890625 
	C144.176498,332.084229 150.156830,336.320984 161.594269,333.047424 
z"/>
<path fill="#AFC338" opacity="1.000000" stroke="none" 
	d="
M348.403503,553.241211 
	C346.417542,542.298218 344.724213,531.125854 342.998505,519.958435 
	C342.373077,515.911255 341.670258,511.875946 341.391479,507.331024 
	C342.186829,505.010132 342.530518,503.176453 343.015778,501.380981 
	C343.643646,499.057892 343.964355,496.515381 345.158447,494.508270 
	C348.257355,489.299286 350.433197,484.170044 348.588806,477.872223 
	C347.953430,475.702728 348.174164,472.904572 348.995209,470.775970 
	C350.193451,467.669647 352.286896,464.908661 353.998779,462.000458 
	C356.417419,463.663574 358.836060,465.326691 361.627960,466.994904 
	C362.665955,473.702454 363.215881,480.418732 364.018738,487.104584 
	C365.846283,502.324249 367.798035,517.528992 370.034668,532.978577 
	C363.141144,539.816162 355.912231,546.414978 348.403503,553.241211 
z"/>
<path fill="#C1D64A" opacity="1.000000" stroke="none" 
	d="
M276.997559,405.998779 
	C276.697510,404.118469 275.589935,401.876343 276.241364,400.422333 
	C278.675323,394.989868 276.784485,389.833618 276.114471,384.545563 
	C274.667969,373.128540 273.451385,361.681976 271.959686,350.271179 
	C271.172028,344.245880 270.004272,338.270294 269.007904,331.882446 
	C269.492035,331.397217 269.972778,331.245789 270.461212,331.214569 
	C283.138062,330.405609 284.603638,329.119568 286.979980,316.382812 
	C288.011841,317.391724 289.508331,318.681122 289.795563,320.199249 
	C291.995850,331.829376 293.960846,343.503998 295.999878,356.010925 
	C296.317505,359.632233 297.006744,362.423737 296.885895,365.179688 
	C296.391296,376.459045 295.649536,387.727509 294.584106,399.000000 
	C288.445435,401.332916 282.721497,403.665863 276.997559,405.998779 
z"/>
<path fill="#0C6DA1" opacity="1.000000" stroke="none" 
	d="
M178.122955,543.434265 
	C175.096909,536.877441 177.207932,530.610535 178.048035,524.399597 
	C179.075638,516.802490 180.469620,509.254913 181.860367,501.328522 
	C196.211487,515.496277 210.407410,530.021423 224.603241,545.156189 
	C221.533722,553.210266 220.966934,560.935303 222.016602,568.841492 
	C207.438080,560.474670 192.859543,552.107849 178.122955,543.434265 
z"/>
<path fill="#0C6DA1" opacity="1.000000" stroke="none" 
	d="
M230.015869,462.534332 
	C228.015381,476.662415 226.000320,490.422455 223.944672,504.176361 
	C223.776138,505.303955 223.331161,506.390228 222.946579,507.919556 
	C215.222168,499.823639 207.565811,491.303864 199.770538,482.469391 
	C200.420395,480.673615 201.692932,479.263092 201.920822,477.700195 
	C203.633224,465.956512 205.154037,454.184662 206.704849,442.417694 
	C207.502396,436.366150 208.096222,430.283447 209.071671,424.261749 
	C209.469604,421.805267 210.634781,419.473053 212.094635,417.261078 
	C213.832611,420.272034 214.926865,423.106232 216.021103,425.940430 
	C220.677658,438.015167 225.334229,450.089935 230.015869,462.534332 
z"/>
<path fill="#BAD236" opacity="1.000000" stroke="none" 
	d="
M282.378235,158.777863 
	C281.672272,155.999176 281.123627,153.220428 281.046661,150.428665 
	C280.902161,145.184967 282.235260,140.967117 288.408905,139.748077 
	C289.524109,139.527878 290.874176,136.814240 290.855011,135.267365 
	C290.809540,131.591187 292.193420,129.308594 294.882690,126.777374 
	C297.051117,124.736412 298.002808,121.152946 298.917023,118.081970 
	C300.750488,111.923218 302.549561,111.045883 307.944183,114.582443 
	C320.155884,122.588112 332.341309,130.634872 344.454742,138.787811 
	C345.738678,139.651978 346.472992,141.332703 347.211884,142.828339 
	C341.975647,143.336411 336.760681,142.818039 332.045441,144.115585 
	C315.520142,148.663101 299.166962,153.836304 282.378235,158.777863 
z"/>
<path fill="#0A70A6" opacity="1.000000" stroke="none" 
	d="
M225.610077,118.558052 
	C221.523651,126.703537 217.539612,134.630554 213.294586,142.786224 
	C213.086090,139.304260 212.788300,135.549133 213.253174,131.890915 
	C215.038620,117.841171 217.036469,103.817940 219.029480,89.795387 
	C219.538803,86.211922 220.321457,82.667297 220.992920,78.714401 
	C236.096115,70.744865 252.057739,65.838737 269.077271,62.860241 
	C252.967880,78.721672 238.411743,96.108879 226.722702,116.505569 
	C226.313583,117.329880 226.189407,117.670128 226.065247,118.010384 
	C226.065247,118.010384 225.712448,118.339577 225.610077,118.558052 
z"/>
<path fill="#C9DC61" opacity="1.000000" stroke="none" 
	d="
M229.666077,332.438538 
	C233.323441,347.068909 235.433060,361.707916 236.128723,376.594757 
	C236.488861,384.301636 237.960648,391.956360 238.921753,399.635712 
	C238.983398,400.128265 239.040543,400.637756 238.984558,401.126190 
	C237.832123,411.179016 238.061874,421.183105 239.863647,431.853180 
	C238.483002,433.717133 237.238449,434.858337 235.993896,435.999542 
	C235.175629,435.001465 233.902267,434.119812 233.612411,432.986572 
	C231.622482,425.206940 229.857925,417.369965 227.980453,409.561127 
	C226.939194,405.230225 225.712967,400.941467 224.764771,396.591248 
	C223.726212,391.826477 222.241348,387.029327 222.123047,382.217468 
	C221.734711,366.422974 221.871780,350.621796 217.281693,335.262787 
	C216.936768,334.108673 217.429474,332.704224 217.838654,331.161682 
	C221.860062,331.375153 225.575607,331.843079 229.666077,332.438538 
z"/>
<path fill="#027FC1" opacity="1.000000" stroke="none" 
	d="
M104.012802,164.665588 
	C103.717148,162.045105 103.162575,159.041382 103.523575,156.152054 
	C104.679482,146.900635 106.174507,137.691589 107.301498,127.884109 
	C108.792747,125.375862 110.650284,123.549545 112.229019,121.507660 
	C124.339584,105.844238 137.338654,91.086403 153.992798,80.443024 
	C153.797379,83.663696 153.370834,86.446396 153.497421,89.203690 
	C153.558548,90.535202 154.659897,91.818970 155.290237,93.124352 
	C145.083817,105.100830 134.157578,116.551239 124.898735,129.220230 
	C117.489746,139.358047 112.112221,150.979797 105.816856,161.933609 
	C105.335030,162.771988 104.723984,163.536102 104.012802,164.665588 
z"/>
<path fill="#C7DA5B" opacity="1.000000" stroke="none" 
	d="
M207.757263,158.253174 
	C209.297821,162.708572 210.865341,167.363388 211.806122,172.141602 
	C215.318878,189.983078 218.626221,207.864990 222.024200,226.106018 
	C214.934067,226.480286 207.830338,226.480286 200.108124,226.480286 
	C199.793442,219.859741 199.611847,212.954468 199.065689,206.078140 
	C198.849274,203.353378 197.823074,200.692917 197.101532,197.639313 
	C200.523849,184.353378 204.010193,171.431305 207.757263,158.253174 
z"/>
<path fill="#126996" opacity="1.000000" stroke="none" 
	d="
M222.341812,568.999634 
	C220.966934,560.935303 221.533722,553.210266 224.777802,545.441956 
	C230.680313,549.921143 236.169067,555.049927 242.182373,559.464050 
	C258.002258,571.076721 274.048340,582.381409 290.011627,593.798523 
	C291.196320,594.645813 292.439606,595.411133 293.384064,596.810852 
	C269.008209,589.603088 245.180588,581.081970 222.341812,568.999634 
z"/>
<path fill="#0778B4" opacity="1.000000" stroke="none" 
	d="
M155.591431,92.998306 
	C154.659897,91.818970 153.558548,90.535202 153.497421,89.203690 
	C153.370834,86.446396 153.797379,83.663696 154.189407,80.171600 
	C160.806671,73.884300 169.962692,71.815781 175.769043,62.870071 
	C169.936218,63.317959 165.461517,63.661560 160.991455,63.600777 
	C161.316544,61.092449 161.636993,58.988510 161.957458,56.884567 
	C172.397491,54.923153 182.777054,52.489338 193.295837,51.143299 
	C202.424484,49.975151 211.710724,50.038643 221.180542,50.230331 
	C197.168182,61.199944 175.171326,74.965950 155.591431,92.998306 
z"/>
<path fill="#027FC1" opacity="1.000000" stroke="none" 
	d="
M161.547195,56.934189 
	C161.636993,58.988510 161.316544,61.092449 160.691544,63.732910 
	C159.249008,64.827560 158.111008,65.385696 156.565674,65.961266 
	C150.767090,67.663811 145.375839,69.348915 139.625580,71.063843 
	C132.571045,74.102173 125.875534,77.110672 119.180031,80.119171 
	C119.110771,77.971924 119.041512,75.824684 118.967575,73.279358 
	C132.169174,65.322578 146.317627,60.263309 161.547195,56.934189 
z"/>
<path fill="#126996" opacity="1.000000" stroke="none" 
	d="
M289.994629,564.287598 
	C290.301727,564.129272 290.669434,564.242126 291.035217,564.694458 
	C290.707275,564.875488 290.381226,564.717102 289.994629,564.287598 
z"/>
<path fill="#126996" opacity="1.000000" stroke="none" 
	d="
M291.104370,565.184692 
	C291.249695,565.122498 291.544647,565.273193 292.014099,565.625610 
	C291.877106,565.684082 291.565552,565.540771 291.104370,565.184692 
z"/>
<path fill="#BACF3D" opacity="1.000000" stroke="none" 
	d="
M596.531860,283.000000 
	C601.039734,284.828308 605.358459,286.217621 609.063477,288.572540 
	C617.907043,294.193573 627.418762,297.436493 637.718018,299.253876 
	C641.376221,299.899414 644.554260,303.265869 647.997375,305.748108 
	C646.027344,312.489502 644.011353,318.872986 641.913208,325.631439 
	C633.803101,323.069275 624.924683,321.438232 617.943665,316.893005 
	C607.115051,309.842621 595.424072,306.098206 583.277161,302.737091 
	C578.926941,301.533386 575.051941,298.613434 570.958679,296.479431 
	C563.019043,292.339996 555.065613,288.226715 547.152771,284.036560 
	C546.035645,283.444977 545.115051,282.482056 544.051758,281.346100 
	C546.715210,280.486176 549.411377,279.785034 552.150635,279.504822 
	C555.325867,279.179962 559.162537,278.030640 561.627014,279.317383 
	C571.938904,284.701263 582.817078,282.901550 593.577332,282.998993 
	C594.406067,283.006500 595.234924,283.000000 596.531860,283.000000 
z"/>
<path fill="#168FCE" opacity="1.000000" stroke="none" 
	d="
M156.973007,65.943825 
	C158.111008,65.385696 159.249008,64.827560 160.686920,64.137291 
	C165.461517,63.661560 169.936218,63.317959 175.769043,62.870071 
	C169.962692,71.815781 160.806671,73.884300 154.185760,79.723175 
	C137.338654,91.086403 124.339584,105.844238 112.229019,121.507660 
	C110.650284,123.549545 108.792747,125.375862 107.024063,127.648682 
	C102.145775,131.346695 97.163078,134.509216 92.496819,138.084702 
	C78.344704,148.928665 64.320091,159.938934 50.233173,170.868149 
	C47.624947,172.891693 45.125633,175.155930 42.244301,176.683182 
	C40.885368,177.403473 38.267178,177.264557 37.092632,176.369415 
	C36.019592,175.551605 35.460213,173.011597 35.851467,171.544464 
	C36.606647,168.712646 38.191525,166.102081 39.908394,163.443710 
	C41.836502,162.905746 43.507599,162.611145 44.706673,161.697235 
	C55.893745,153.170624 67.167313,144.744125 78.086693,135.883057 
	C91.579353,124.933800 104.846756,113.701157 118.042442,102.393669 
	C127.224007,94.525932 136.213318,86.426262 145.104385,78.230438 
	C149.284195,74.377472 153.030334,70.054054 156.973007,65.943825 
z"/>
<path fill="#2194D0" opacity="1.000000" stroke="none" 
	d="
M156.565674,65.961266 
	C153.030334,70.054054 149.284195,74.377472 145.104385,78.230438 
	C136.213318,86.426262 127.224007,94.525932 118.042442,102.393669 
	C104.846756,113.701157 91.579353,124.933800 78.086693,135.883057 
	C67.167313,144.744125 55.893745,153.170624 44.706673,161.697235 
	C43.507599,162.611145 41.836502,162.905746 40.186413,163.238647 
	C45.774593,153.761429 51.560730,144.533203 58.019753,135.151123 
	C60.817032,133.815216 63.104744,132.852844 65.038811,131.414841 
	C76.031593,123.241631 87.005867,115.040504 97.860176,106.684860 
	C111.323250,96.320999 124.695366,85.837662 137.996811,75.267548 
	C139.090302,74.398598 139.341858,72.470161 139.984604,71.034012 
	C145.375839,69.348915 150.767090,67.663811 156.565674,65.961266 
z"/>
<path fill="#3AA0D5" opacity="1.000000" stroke="none" 
	d="
M139.625580,71.063843 
	C139.341858,72.470161 139.090302,74.398598 137.996811,75.267548 
	C124.695366,85.837662 111.323250,96.320999 97.860176,106.684860 
	C87.005867,115.040504 76.031593,123.241631 65.038811,131.414841 
	C63.104744,132.852844 60.817032,133.815216 58.317062,134.996033 
	C60.426979,131.701416 62.635174,128.147430 65.444191,125.157990 
	C80.610138,109.017952 96.778877,94.046844 116.120918,82.892738 
	C117.107689,82.323692 117.904732,81.425667 118.985077,80.399994 
	C125.875534,77.110672 132.571045,74.102173 139.625580,71.063843 
z"/>
<path fill="#CADC64" opacity="1.000000" stroke="none" 
	d="
M651.062866,170.607513 
	C650.180969,174.069290 649.259827,177.200668 647.888306,180.430725 
	C645.631165,175.354614 643.824402,170.179825 642.005493,164.614532 
	C639.999573,159.148560 638.005798,154.073059 635.969543,148.631714 
	C633.292542,143.175095 630.658081,138.084335 627.980713,132.636963 
	C626.955200,129.853760 625.972717,127.427193 624.990234,125.000618 
	C628.164062,125.336609 630.679382,124.898743 630.029907,120.295059 
	C638.430725,134.870255 645.931030,150.249634 650.092041,167.701035 
	C650.318115,168.622452 650.543945,168.833221 650.848633,168.959503 
	C650.906921,169.398697 650.965271,169.837906 651.062866,170.607513 
z"/>
<path fill="#C7DA5B" opacity="1.000000" stroke="none" 
	d="
M650.834167,168.709595 
	C650.543945,168.833221 650.318115,168.622452 650.100098,168.101471 
	C650.292664,168.070419 650.556152,168.265060 650.834167,168.709595 
z"/>
<path fill="#CADC64" opacity="1.000000" stroke="none" 
	d="
M629.861450,118.708878 
	C629.559509,118.840561 629.325562,118.624809 629.106262,118.084000 
	C629.306580,118.050735 629.576111,118.251572 629.861450,118.708878 
z"/>
<path fill="#D2E27B" opacity="1.000000" stroke="none" 
	d="
M636.012024,148.997559 
	C638.005798,154.073059 639.999573,159.148560 641.634583,164.608948 
	C639.397888,164.027191 637.353149,163.287613 635.672424,162.052567 
	C629.952515,157.849487 624.318787,153.525528 618.727844,149.150970 
	C596.884949,132.060196 575.095947,114.900322 553.206970,97.868904 
	C551.086121,96.218704 548.413208,95.278000 545.996582,94.007942 
	C536.456360,84.298302 527.230164,74.253372 517.303955,64.955849 
	C501.535919,50.186588 484.269958,37.294243 465.362457,26.759184 
	C457.542877,22.402199 449.408752,18.609797 441.207001,14.281621 
	C440.718445,12.607018 440.440582,11.211421 439.923431,8.614236 
	C446.433716,9.460069 452.302429,10.222548 458.620880,11.342228 
	C463.818146,16.002142 468.316498,20.624664 473.356506,24.552071 
	C494.776642,41.243710 516.427246,57.639473 537.862732,74.311691 
	C568.445557,98.098534 598.896240,122.055214 629.473267,145.849503 
	C631.339417,147.301666 633.818237,147.966431 636.012024,148.997559 
z"/>
<path fill="#CDDE6C" opacity="1.000000" stroke="none" 
	d="
M546.132935,94.318947 
	C548.413208,95.278000 551.086121,96.218704 553.206970,97.868904 
	C575.095947,114.900322 596.884949,132.060196 618.727844,149.150970 
	C624.318787,153.525528 629.952515,157.849487 635.672424,162.052567 
	C637.353149,163.287613 639.397888,164.027191 641.646729,164.999420 
	C643.824402,170.179825 645.631165,175.354614 647.715332,180.766159 
	C647.995239,181.447113 647.997742,181.891312 647.628540,182.663712 
	C643.437988,180.483505 639.455505,178.190247 635.827393,175.430954 
	C615.926453,160.295746 596.137695,145.012970 576.231995,129.884079 
	C574.079956,128.248505 571.423279,127.276932 569.000732,125.997345 
	C562.385437,116.885124 555.769043,107.773674 549.156006,98.659821 
	C548.185608,97.322449 547.231079,95.973541 546.132935,94.318947 
z"/>
<path fill="#CADC64" opacity="1.000000" stroke="none" 
	d="
M569.147034,126.300423 
	C571.423279,127.276932 574.079956,128.248505 576.231995,129.884079 
	C596.137695,145.012970 615.926453,160.295746 635.827393,175.430954 
	C639.455505,178.190247 643.437988,180.483505 647.629639,182.996887 
	C648.668640,186.387695 649.334900,189.773544 649.790466,193.842468 
	C647.832153,193.891144 645.774048,193.652206 644.384399,192.561600 
	C629.300842,180.723724 614.385681,168.671005 599.285461,156.854660 
	C592.688660,151.692459 585.771606,146.939453 579.000000,142.000610 
	C577.178406,139.143799 575.356812,136.286987 573.267578,133.215393 
	C571.764404,130.868256 570.528870,128.735870 569.147034,126.300423 
z"/>
<path fill="#D9E68F" opacity="1.000000" stroke="none" 
	d="
M494.000702,19.983200 
	C503.185883,23.258137 512.642212,25.932259 521.500854,29.930681 
	C541.101990,38.777885 558.895386,50.629948 575.164795,64.694611 
	C592.205139,79.425690 606.440125,96.598366 618.690857,115.452911 
	C619.498474,116.695946 620.189270,118.014854 620.620361,119.614853 
	C618.577393,118.974113 616.697754,118.214340 615.144165,117.027679 
	C605.428040,109.606659 595.715942,102.177177 586.132690,94.586174 
	C569.816772,81.662201 553.670349,68.523705 537.313782,55.651920 
	C524.198425,45.330799 510.839172,35.319923 497.696960,25.032356 
	C496.116089,23.794868 495.216217,21.687429 494.000702,19.983200 
z"/>
<path fill="#D5E382" opacity="1.000000" stroke="none" 
	d="
M635.969543,148.631714 
	C633.818237,147.966431 631.339417,147.301666 629.473267,145.849503 
	C598.896240,122.055214 568.445557,98.098534 537.862732,74.311691 
	C516.427246,57.639473 494.776642,41.243710 473.356506,24.552071 
	C468.316498,20.624664 463.818146,16.002142 459.038361,11.355135 
	C464.769104,12.234006 470.532074,13.457170 476.680542,15.182124 
	C478.897583,17.797342 480.449249,20.264326 482.603699,21.969954 
	C506.103058,40.574120 529.630615,59.144081 553.284241,77.551514 
	C574.716858,94.230530 596.275146,110.749123 617.884705,127.198380 
	C620.955505,129.535873 624.629028,131.081451 628.023621,132.993591 
	C630.658081,138.084335 633.292542,143.175095 635.969543,148.631714 
z"/>
<path fill="#D7E589" opacity="1.000000" stroke="none" 
	d="
M627.980713,132.636963 
	C624.629028,131.081451 620.955505,129.535873 617.884705,127.198380 
	C596.275146,110.749123 574.716858,94.230530 553.284241,77.551514 
	C529.630615,59.144081 506.103058,40.574120 482.603699,21.969954 
	C480.449249,20.264326 478.897583,17.797342 477.031158,15.337978 
	C482.521149,16.465694 488.045929,17.939346 493.785706,19.698101 
	C495.216217,21.687429 496.116089,23.794868 497.696960,25.032356 
	C510.839172,35.319923 524.198425,45.330799 537.313782,55.651920 
	C553.670349,68.523705 569.816772,81.662201 586.132690,94.586174 
	C595.715942,102.177177 605.428040,109.606659 615.144165,117.027679 
	C616.697754,118.214340 618.577393,118.974113 620.663147,119.965042 
	C622.146729,121.568405 623.273560,123.137962 624.695312,124.854073 
	C625.972717,127.427193 626.955200,129.853760 627.980713,132.636963 
z"/>
<path fill="#C4D852" opacity="1.000000" stroke="none" 
	d="
M226.289307,117.853386 
	C226.189407,117.670128 226.313583,117.329880 226.675323,116.843536 
	C226.779739,117.030426 226.646561,117.363411 226.289307,117.853386 
z"/>
<path fill="#B3C93A" opacity="1.000000" stroke="none" 
	d="
M353.999268,461.553345 
	C352.286896,464.908661 350.193451,467.669647 348.995209,470.775970 
	C348.174164,472.904572 347.953430,475.702728 348.588806,477.872223 
	C350.433197,484.170044 348.257355,489.299286 345.158447,494.508270 
	C343.964355,496.515381 343.643646,499.057892 343.015778,501.380981 
	C342.530518,503.176453 342.186829,505.010132 341.390717,506.913422 
	C337.855225,496.494171 334.709229,485.988342 331.281555,474.783844 
	C330.804382,470.975861 330.727692,467.853668 330.391602,464.759613 
	C329.313507,454.834137 328.139465,444.919067 327.305145,434.852234 
	C331.774231,431.379181 337.305054,428.780701 334.372955,421.709747 
	C334.200623,421.294128 334.819061,420.509949 335.140442,419.937042 
	C336.767487,417.036438 338.258850,414.040344 340.127899,411.303131 
	C341.050934,409.951324 342.685944,409.085632 343.998779,408.000000 
	C344.790710,408.642700 345.582672,409.285431 346.687927,409.964050 
	C349.136414,424.584991 351.293121,439.166901 353.385498,453.758026 
	C353.733826,456.186829 353.802124,458.655792 353.999268,461.553345 
z"/>
<path fill="#B6CC37" opacity="1.000000" stroke="none" 
	d="
M343.998413,407.586304 
	C342.685944,409.085632 341.050934,409.951324 340.127899,411.303131 
	C338.258850,414.040344 336.767487,417.036438 335.140442,419.937042 
	C334.819061,420.509949 334.200623,421.294128 334.372955,421.709747 
	C337.305054,428.780701 331.774231,431.379181 327.012146,434.626770 
	C325.942200,433.177582 325.377014,431.829926 325.009277,430.430420 
	C323.309479,423.961945 321.664581,417.478973 320.000183,410.565002 
	C319.000610,401.752533 318.000916,393.376251 317.001221,385.000000 
	C318.241058,381.514343 320.073456,378.111542 320.575378,374.522705 
	C321.249084,369.704956 320.894592,364.743378 320.991974,359.421753 
	C323.460114,358.807983 325.933990,358.351257 328.370789,358.500305 
	C330.686035,358.641968 332.962585,359.417145 335.628052,359.956879 
	C337.999969,372.333801 339.975983,384.671570 342.015503,396.998810 
	C342.579224,400.406128 343.332031,403.782196 343.998413,407.586304 
z"/>
<path fill="#C9DC61" opacity="1.000000" stroke="none" 
	d="
M579.034912,142.354858 
	C585.771606,146.939453 592.688660,151.692459 599.285461,156.854660 
	C614.385681,168.671005 629.300842,180.723724 644.384399,192.561600 
	C645.774048,193.652206 647.832153,193.891144 649.791138,194.262115 
	C650.116272,196.162033 650.230103,198.325409 650.343994,200.488770 
	C648.492432,199.814301 646.338440,199.540115 644.835388,198.404388 
	C626.781311,184.762711 608.632996,171.231796 590.967224,157.099442 
	C586.209106,153.293060 582.993530,147.558548 579.034912,142.354858 
z"/>
<path fill="#C9DB6A" opacity="1.000000" stroke="none" 
	d="
M216.018158,425.522034 
	C214.926865,423.106232 213.832611,420.272034 212.483154,417.189514 
	C212.153900,416.491547 212.079834,416.041931 211.886688,415.022583 
	C211.544159,414.217010 211.320724,413.981171 211.097290,413.745300 
	C206.556747,395.937897 201.850037,378.170441 197.558273,360.303284 
	C195.867035,353.262421 195.101654,345.999176 193.786438,338.421448 
	C190.308762,312.947266 188.195877,287.820984 189.715851,262.125397 
	C191.695770,270.275330 193.585251,278.784851 195.231781,287.341064 
	C200.561356,315.036499 205.860565,342.738068 211.050552,370.459930 
	C213.476746,383.419342 216.037460,396.378571 217.692383,409.444855 
	C218.334213,414.512360 216.643387,419.875275 216.018158,425.522034 
z"/>
<path fill="#BBD043" opacity="1.000000" stroke="none" 
	d="
M316.999878,384.592163 
	C318.000916,393.376251 319.000610,401.752533 319.647156,410.620819 
	C314.677460,416.760010 313.520569,423.253937 314.163300,430.367310 
	C314.319427,432.094788 313.132385,433.975403 312.445679,435.739929 
	C311.390045,438.452484 308.933685,441.379974 309.399780,443.760376 
	C310.267517,448.191742 308.557037,449.855804 304.992523,450.591614 
	C301.655487,433.122955 298.327148,416.061493 294.998810,399.000000 
	C295.649536,387.727509 296.391296,376.459045 296.885895,365.179688 
	C297.006744,362.423737 296.317505,359.632233 296.001617,356.428528 
	C297.199249,356.763214 298.842651,357.252289 299.510437,358.340210 
	C301.650726,361.827087 303.714111,364.797455 308.629395,364.286591 
	C309.738831,364.171295 311.738281,366.297150 312.237396,367.762726 
	C314.072723,373.152069 315.449341,378.697601 316.999878,384.592163 
z"/>
<path fill="#C1D35F" opacity="1.000000" stroke="none" 
	d="
M235.995834,436.438965 
	C237.238449,434.858337 238.483002,433.717133 239.863983,432.287354 
	C245.077911,432.329010 250.155411,432.659210 255.616364,433.423645 
	C257.989410,447.240662 259.878723,460.639374 261.996155,474.001923 
	C264.217194,488.018524 266.657013,502.000458 269.001221,515.997559 
	C269.315613,521.508057 269.630035,527.018555 269.921021,533.026672 
	C258.033691,516.846191 248.218933,498.972076 239.037781,480.348328 
	C238.002350,465.618042 237.000061,451.248230 235.995834,436.438965 
z"/>
<path fill="#0C6DA1" opacity="1.000000" stroke="none" 
	d="
M211.129959,413.984436 
	C211.320724,413.981171 211.544159,414.217010 211.766174,414.702454 
	C211.469269,414.787567 211.268555,414.544739 211.129959,413.984436 
z"/>
<path fill="#BCCF4C" opacity="1.000000" stroke="none" 
	d="
M294.584106,399.000000 
	C298.327148,416.061493 301.655487,433.122955 304.992218,451.023468 
	C305.667084,459.575104 306.333527,467.287689 307.000000,475.000305 
	C305.096741,478.041229 303.538452,481.386200 301.197968,484.041779 
	C298.600159,486.989410 298.732422,489.902954 299.570679,493.262817 
	C300.827393,498.300110 299.717346,502.453033 294.353607,504.963623 
	C291.334473,495.189240 288.671753,485.377686 286.002075,475.568054 
	C284.893433,471.494446 283.769836,467.424927 282.326477,462.719849 
	C281.804596,458.977173 281.736633,455.853943 281.390442,452.761902 
	C280.316315,443.167816 279.136414,433.585602 277.997559,423.998779 
	C277.849213,420.377960 277.734802,416.755280 277.539459,413.136993 
	C277.426697,411.047943 277.183319,408.965942 276.998169,406.439758 
	C282.721497,403.665863 288.445435,401.332916 294.584106,399.000000 
z"/>
<path fill="#B7CB43" opacity="1.000000" stroke="none" 
	d="
M307.363953,475.068665 
	C306.333527,467.287689 305.667084,459.575104 305.000916,451.430634 
	C308.557037,449.855804 310.267517,448.191742 309.399780,443.760376 
	C308.933685,441.379974 311.390045,438.452484 312.445679,435.739929 
	C313.132385,433.975403 314.319427,432.094788 314.163300,430.367310 
	C313.520569,423.253937 314.677460,416.760010 319.647003,411.057037 
	C321.664581,417.478973 323.309479,423.961945 325.009277,430.430420 
	C325.377014,431.829926 325.942200,433.177582 326.709442,434.774536 
	C328.139465,444.919067 329.313507,454.834137 330.391602,464.759613 
	C330.727692,467.853668 330.804382,470.975861 330.999268,474.542572 
	C330.150787,476.637085 328.696167,478.241241 328.605103,479.919403 
	C328.485565,482.122833 329.628021,484.362976 329.887329,486.626312 
	C330.242493,489.726593 330.688599,492.983765 326.569733,494.316956 
	C325.735931,494.586823 325.086975,495.573364 324.463593,496.321777 
	C322.153595,499.094788 319.889954,501.906464 317.305054,504.851807 
	C315.336060,499.530945 313.692078,494.055328 311.999176,488.594879 
	C310.605530,484.099579 309.153900,479.622284 307.363953,475.068665 
z"/>
<path fill="#BFD255" opacity="1.000000" stroke="none" 
	d="
M277.600952,423.950867 
	C279.136414,433.585602 280.316315,443.167816 281.390442,452.761902 
	C281.736633,455.853943 281.804596,458.977173 281.999298,462.543671 
	C281.032196,464.895630 278.971039,466.999512 279.286621,468.648590 
	C280.733063,476.206512 280.281647,483.065948 276.289673,490.003662 
	C274.728119,492.717529 275.288910,497.023438 275.789948,500.472504 
	C276.700134,506.738434 274.698090,512.606873 269.354675,515.961853 
	C266.657013,502.000458 264.217194,488.018524 261.996155,474.001923 
	C259.878723,460.639374 257.989410,447.240662 255.999298,433.429535 
	C256.661987,430.257996 257.325165,427.514801 257.994812,424.384583 
	C258.328064,422.401764 258.919220,420.804688 258.911285,419.210571 
	C258.902435,417.435547 257.881073,415.579987 258.177856,413.915924 
	C258.419617,412.560394 259.954742,411.435547 260.916351,410.208405 
	C261.998291,411.175476 263.185089,412.052917 264.119507,413.146088 
	C264.613281,413.723694 264.832001,414.664398 264.893463,415.462830 
	C265.299347,420.735168 266.022797,425.462738 273.403839,423.094757 
	C274.474121,422.751404 275.928009,423.603851 277.600952,423.950867 
z"/>
</svg>