<svg xmlns="http://www.w3.org/2000/svg" width="1170" height="822" viewBox="0 0 1170 822" version="1.1">
	<path fill-opacity="0.294" d="M 27 410.448 L 27 820.895 21.750 821.263 L 16.500 821.630 22.250 821.815 L 28 822 28 411 C 28 184.950, 27.775 0, 27.500 0 C 27.225 0, 27 184.701, 27 410.448 M 470 50.167 C 440.217 52.972, 406.494 63.965, 381.115 79.141 C 296.996 129.443, 257.973 229.138, 285.425 323.603 C 294.992 356.523, 312.501 393.808, 332.336 423.500 C 378.043 491.919, 447.374 547.868, 528.500 581.802 C 541.642 587.300, 563.828 595.459, 568.527 596.523 C 570.265 596.917, 564.438 592.542, 554.500 585.991 C 490.392 543.735, 435.279 482.573, 402.674 417.500 C 377.322 366.904, 365.042 321.727, 361.814 267.182 C 359.533 228.641, 364.388 200.184, 379.162 165.512 C 399.526 117.723, 436.079 79.432, 483.914 55.783 L 497.500 49.067 488.500 49.169 C 483.550 49.226, 475.225 49.675, 470 50.167 M 531.418 64.464 C 497.717 73.198, 470.218 88.751, 443.351 114.271 C 417.807 138.536, 396.977 176.940, 388.990 214.500 C 386.240 227.433, 385.233 257.862, 386.923 276.976 C 391.489 328.621, 409.533 383.361, 437.112 429.235 C 452.325 454.538, 461.552 466.832, 486.099 494.500 C 509.130 520.460, 528.731 538.088, 555.706 557.101 C 561.869 561.446, 567.139 565, 567.416 565 C 567.694 565, 563.726 559.257, 558.599 552.238 C 517.522 496.004, 487.542 429.952, 474.068 366 C 467.459 334.630, 464.875 309.830, 464.755 276.615 L 464.661 250.730 456.580 251.359 C 452.136 251.705, 447.004 251.991, 445.176 251.994 L 441.851 252 442.571 288.295 C 443.356 327.904, 443.394 327.569, 437.686 331.050 C 431.897 334.579, 422.968 332.545, 420.012 327.023 C 419.294 325.682, 418.491 309.146, 417.757 280.587 C 416.696 239.323, 416.735 236.053, 418.322 233.631 C 421.712 228.457, 424.332 227.594, 437.941 227.170 L 450.567 226.777 450.534 212.915 L 450.500 199.053 453.593 195.952 C 457.812 191.724, 463.545 190.944, 468.581 193.915 C 470.600 195.106, 472.344 195.950, 472.456 195.791 C 472.569 195.631, 473.232 192.800, 473.931 189.500 C 483.822 142.776, 504.013 104.121, 536.011 70.650 C 541.085 65.342, 545.071 61.017, 544.868 61.037 C 544.666 61.057, 538.613 62.600, 531.418 64.464 M 819.500 411.402 C 785.400 421.394, 757.024 429.778, 756.443 430.034 C 755.861 430.290, 752.962 434.775, 750 440 C 725.737 482.799, 693.349 523.470, 658.040 555.474 C 644.113 568.098, 627.335 581.874, 617.068 589.115 C 611.550 593.006, 608.699 597.033, 610.317 598.650 C 611.059 599.392, 633.077 592.065, 650.500 585.277 C 666.733 578.953, 699.603 563.167, 715.500 554.062 C 733.700 543.637, 762.512 523.976, 779.500 510.390 C 797.719 495.819, 831.688 462.557, 845.588 445.677 C 859.068 429.307, 884.562 392.746, 882.238 393.118 C 881.832 393.183, 853.600 401.411, 819.500 411.402 M 682.637 451.062 C 662.363 457.019, 645.596 462.070, 645.378 462.288 C 645.160 462.506, 645.688 466.404, 646.550 470.950 C 647.412 475.496, 647.979 479.330, 647.809 479.471 C 647.639 479.611, 646.150 480.163, 644.500 480.696 C 642.074 481.481, 641.500 482.225, 641.500 484.583 C 641.500 487.040, 640.948 487.674, 638 488.604 C 634.216 489.798, 633.903 490.917, 635.329 498.136 C 635.978 501.417, 635.814 501.830, 633.645 502.374 C 631.263 502.972, 631.253 503.027, 632.487 508.937 C 633.689 514.700, 633.661 514.906, 631.615 515.198 C 629.330 515.524, 629.167 516.652, 630.401 523.616 C 631.046 527.256, 630.892 527.795, 629.065 528.273 C 627.554 528.668, 627 529.622, 627 531.829 C 627 534.389, 626.471 535.019, 623.500 536 C 621.575 536.635, 620 537.548, 620 538.028 C 620 539.140, 621.990 549.065, 622.569 550.840 C 623.135 552.576, 627.801 548.610, 649.654 527.820 C 671.598 506.943, 690.803 484.416, 706.072 461.642 C 717.103 445.189, 720.528 439.813, 719.785 440.116 C 719.628 440.180, 702.912 445.106, 682.637 451.062 M 667.485 663.024 C 666.445 664.707, 667.915 672.882, 670.232 678.294 C 674.288 687.770, 683.252 692.599, 695.355 691.828 C 708.112 691.016, 716.447 682.193, 717.720 668.151 L 718.278 662 712.233 662 L 706.188 662 705.477 667.250 C 704.197 676.698, 699.739 682.012, 693.115 681.985 C 685.541 681.954, 681.370 677.585, 680.243 668.500 L 679.499 662.500 673.838 662.203 C 670.431 662.024, 667.901 662.351, 667.485 663.024 M 317 669.132 C 283.183 672.195, 270.852 681.340, 264.967 707.721 C 263.890 712.549, 262.722 721.900, 262.370 728.500 C 260.725 759.388, 268.715 780.802, 284.839 788.720 C 289.902 791.206, 291.557 791.497, 300.500 791.472 C 309.501 791.447, 311.076 791.155, 316.266 788.552 C 330.822 781.251, 339.358 765.727, 339.389 746.500 C 339.431 720.128, 325.171 704.865, 301.758 706.220 C 294.919 706.616, 292.766 707.239, 285.881 710.818 L 277.917 714.959 278.540 711.229 C 282.121 689.804, 290.539 684.339, 322.993 682.368 L 334 681.699 334 674.850 L 334 668 330.250 668.136 C 328.188 668.211, 322.225 668.659, 317 669.132 M 54.561 691.750 C 52.899 736.891, 50.729 755.957, 46.229 764.955 C 42.924 771.562, 39.714 774.053, 33.614 774.740 L 29 775.260 29 782.630 L 29 790 33.822 790 C 48.229 790, 58.654 780.027, 63.413 761.693 C 66.361 750.335, 68.929 720.380, 68.981 696.750 L 69 688 88.491 688 L 107.982 688 108.241 738.750 L 108.500 789.500 116.250 789.792 L 124 790.084 124 732.042 L 124 674 89.607 674 L 55.215 674 54.561 691.750 M 201.005 702.668 C 188.886 706.908, 180.452 717.246, 177.574 731.389 L 176.330 737.500 168.665 737.792 L 161 738.084 161 720.542 L 161 703 153.500 703 L 146 703 146 746.500 L 146 790 153.500 790 L 161 790 161 770 L 161 750 168.353 750 L 175.707 750 176.859 756.978 C 179.418 772.474, 186.455 783.130, 197.810 788.706 C 202.943 791.226, 204.529 791.500, 214 791.499 C 223.266 791.499, 225.164 791.187, 230.148 788.851 C 240.076 784.198, 247.440 775.016, 250.479 763.500 C 252.581 755.536, 252.595 737.455, 250.505 729.575 C 247.127 716.836, 238.922 706.985, 228.414 703.054 C 221.583 700.498, 207.764 700.303, 201.005 702.668 M 879.802 703.336 C 864 709.988, 855.981 724.356, 856.015 745.960 C 856.042 763.236, 860.131 774.263, 869.781 783.083 C 877.097 789.769, 885.783 792.493, 897.369 791.735 C 907.434 791.076, 913.354 788.620, 920.109 782.302 C 929.039 773.948, 933 763.053, 933 746.839 C 933 725.457, 926.725 712.430, 912.826 704.959 C 906.959 701.806, 905.739 701.537, 896 701.248 C 886.749 700.975, 884.822 701.223, 879.802 703.336 M 976.007 703.576 C 972.986 704.982, 969.079 707.228, 967.324 708.566 C 965.569 709.905, 963.878 711, 963.567 711 C 963.255 711, 963 709.200, 963 707 L 963 703 955.500 703 L 948 703 948 762.500 L 948 822 955.500 822 L 963 822 963 804 C 963 794.100, 963.112 786.002, 963.250 786.005 C 963.388 786.007, 966.200 787.121, 969.500 788.481 C 976.786 791.482, 988.968 791.912, 996.266 789.425 C 1004.990 786.453, 1013.663 776.894, 1017.977 765.500 C 1020.758 758.153, 1021.914 738.705, 1020.092 729.935 C 1017.515 717.539, 1010.166 706.796, 1001.601 702.906 C 995.171 699.986, 983.038 700.304, 976.007 703.576 M 1056.324 702.385 C 1050.482 704.288, 1045.889 707.312, 1041.331 712.257 C 1026.199 728.674, 1026.284 764.025, 1041.496 780.864 C 1043.555 783.143, 1048.173 786.436, 1051.840 788.240 C 1058.057 791.299, 1059.119 791.500, 1069.084 791.500 C 1079.250 791.500, 1079.996 791.350, 1086.551 788 C 1098.335 781.976, 1104.821 771.614, 1107.113 755.147 C 1110.273 732.445, 1101.831 711.957, 1086.154 704.287 C 1081.325 701.925, 1079.102 701.497, 1070.513 701.279 C 1064.119 701.117, 1058.991 701.517, 1056.324 702.385 M 0 708 C 0 712.667, 0.333 714, 1.500 714 C 2.801 714, 3 718.111, 3 745 C 3 771.889, 2.801 776, 1.500 776 C 0.321 776, 0 777.389, 0 782.500 L 0 789 6.500 789 L 13 789 13 799.500 L 13 810 19.500 810 L 26 810 26 793 L 26 776 22 776 L 18 776 18 739 L 18 702 9 702 L 0 702 0 708 M 355 746.546 L 355 790.091 361.700 789.796 L 368.401 789.500 388.450 757.537 L 408.500 725.573 408.764 757.787 L 409.028 790 416.014 790 L 423 790 423 746.500 L 423 703 416.250 703.007 L 409.500 703.013 390 734.003 L 370.500 764.994 370.236 733.997 L 369.972 703 362.486 703 L 355 703 355 746.546 M 444.239 746.212 L 444.500 789.500 451.250 789.796 L 458 790.091 458 756.379 C 458 737.837, 458.279 722.946, 458.621 723.288 C 458.963 723.629, 463.610 733.267, 468.949 744.704 L 478.655 765.500 484.160 765.795 L 489.664 766.090 499.418 745.295 C 504.782 733.858, 509.583 724.072, 510.086 723.550 C 510.639 722.975, 511 735.915, 511 756.300 L 511 790 518 790 L 525 790 525 746.462 L 525 702.925 515.856 703.212 L 506.711 703.500 496.119 726.750 C 490.293 739.538, 485.290 750, 485 750 C 484.710 750, 479.518 739.538, 473.461 726.750 L 462.449 703.500 453.214 703.212 L 443.979 702.925 444.239 746.212 M 546 746.624 L 546 790.248 566.750 789.754 C 589.237 789.217, 592.358 788.602, 600.299 783.138 C 602.904 781.346, 605.719 778.106, 607.501 774.848 C 609.992 770.294, 610.419 768.431, 610.375 762.302 C 610.307 752.863, 607.365 746.814, 600.635 742.277 C 593.898 737.735, 590.349 737.012, 574.750 737.006 L 561 737 561 720 L 561 703 553.500 703 L 546 703 546 746.624 M 621 746.500 L 621 790 628 790 L 635 790 635 746.500 L 635 703 628 703 L 621 703 621 746.500 M 656.239 746.250 L 656.500 789.500 663.044 789.791 L 669.587 790.082 689.779 757.882 L 709.971 725.683 710.236 757.591 L 710.500 789.500 717.750 789.794 L 725 790.088 725 746.500 L 725 702.912 717.859 703.206 L 710.718 703.500 691.109 734.677 L 671.500 765.853 671.236 734.427 L 670.972 703 663.475 703 L 655.979 703 656.239 746.250 M 796 746.500 L 796 790 803 790 L 810 790 810 753 L 810 716 830.500 716 L 851 716 851 709.500 L 851 703 823.500 703 L 796 703 796 746.500 M 1134.992 709.250 C 1134.966 728.547, 1129.338 754.802, 1121.807 770.750 C 1119.176 776.321, 1118.537 777, 1115.928 777 L 1113 777 1113 794 L 1113 811 1119.500 811 L 1126 811 1126 800.500 L 1126 790 1148 790 L 1170 790 1170 783.500 L 1170 777 1151.565 777 L 1133.130 777 1137.012 768.715 C 1141.766 758.570, 1145.512 744.508, 1147.500 729.338 C 1148.325 723.046, 1149 717.246, 1149 716.449 C 1149 715.276, 1150.998 715, 1159.500 715 L 1170 715 1170 709 L 1170 703 1152.500 703 L 1135 703 1134.992 709.250 M 210.500 713.442 C 209.950 713.653, 208.251 714.101, 206.725 714.438 C 202.514 715.368, 196.509 721.398, 193.957 727.258 C 192.217 731.255, 191.567 734.996, 191.219 743.012 C 190.201 766.481, 198.213 779, 214.252 779 C 223.852 779, 229.946 774.858, 234.129 765.488 C 237.256 758.484, 237.998 740.589, 235.537 731.500 C 233.692 724.684, 228.919 718.044, 224.056 715.529 C 221.299 714.103, 212.366 712.728, 210.500 713.442 M 887.704 714.425 C 875.802 717.625, 870.067 730.294, 871.285 750.698 C 872.007 762.812, 875.814 771.525, 882.242 775.779 C 888.077 779.640, 898.573 780.117, 904.987 776.812 C 914.338 771.993, 918.591 760.709, 917.755 742.936 C 916.981 726.485, 911.899 717.532, 901.596 714.473 C 895.717 712.727, 894.039 712.721, 887.704 714.425 M 1063.500 713.888 C 1053.061 716.594, 1047.872 723.621, 1045.899 737.722 C 1042.477 762.179, 1051.801 779.042, 1068.710 778.978 C 1085.327 778.915, 1092.692 767.502, 1091.824 743.160 C 1091.436 732.279, 1091.119 730.614, 1088.433 725.361 C 1086.249 721.091, 1084.290 718.846, 1080.985 716.827 C 1076.145 713.870, 1068.515 712.587, 1063.500 713.888 M 981.500 715.080 C 975.832 716.148, 972.493 717.565, 967.424 721.052 L 963 724.096 963 748.896 L 963 773.697 967.250 775.445 C 972.910 777.774, 984.662 778.597, 989.494 777.002 C 994.839 775.238, 1000.372 769.850, 1003.112 763.742 C 1005.171 759.150, 1005.465 756.950, 1005.478 746 C 1005.486 738.851, 1004.960 731.745, 1004.248 729.401 C 1000.818 718.098, 992.677 712.973, 981.500 715.080 M 294.236 720.060 C 291.891 720.522, 287.304 722.098, 284.044 723.561 L 278.116 726.221 277.440 731.638 C 276.631 738.110, 278.266 754.486, 280.430 761.586 C 283.854 772.821, 291.331 779, 301.500 779 C 311.406 779, 319.124 773.084, 322.582 762.841 C 325.030 755.586, 325.075 741.313, 322.671 734.327 C 320.231 727.238, 314.062 721.608, 307.097 720.114 C 301.289 718.869, 300.299 718.864, 294.236 720.060 M 561 763.639 L 561 778.279 572.250 777.771 C 589.922 776.973, 595 773.676, 595 763 C 595 758.636, 594.483 756.613, 592.832 754.514 C 589.355 750.094, 585.329 749, 572.532 749 L 561 749 561 763.639 M 3.776 821.733 C 6.128 821.945, 9.728 821.942, 11.776 821.727 C 13.824 821.512, 11.900 821.339, 7.500 821.343 C 3.100 821.346, 1.424 821.522, 3.776 821.733 " stroke="none" fill="black" fill-rule="evenodd"/>
	<path fill-opacity="0.417" d="M 27 410.448 L 27 820.895 21.750 821.263 L 16.500 821.630 22.250 821.815 L 28 822 28 411 C 28 184.950, 27.775 0, 27.500 0 C 27.225 0, 27 184.701, 27 410.448 M 480.500 49.672 C 437.818 51.765, 394.723 67.412, 360.780 93.141 C 350.427 100.988, 332.705 118.121, 324.723 128 C 305.616 151.647, 290.786 181.133, 283.552 209.857 C 279.245 226.960, 277.867 237.123, 277.294 256.007 C 276.419 284.850, 279.620 305.722, 289.481 335.463 C 314.088 409.673, 363.257 475.764, 431.834 526.805 C 468.468 554.071, 512.668 577.172, 558.250 592.875 C 564.712 595.102, 570 596.762, 570 596.565 C 570 596.368, 563.138 591.773, 554.750 586.353 C 493.983 547.091, 438.259 486.160, 404.898 422.500 C 374.780 365.028, 359.284 301.067, 361.290 242.500 C 363.203 186.673, 387.538 132.989, 428.511 94.209 C 446.490 77.192, 463.845 65.157, 484.374 55.469 C 490.165 52.736, 494.925 50.163, 494.952 49.750 C 494.978 49.337, 493.087 49.085, 490.750 49.189 C 488.413 49.293, 483.800 49.511, 480.500 49.672 M 529.959 64.980 C 499.854 73.061, 476.548 85.720, 450.163 108.323 C 413.865 139.419, 388.431 192.032, 386.331 240.370 C 383.826 297.998, 401.478 366.749, 432.835 421.500 C 448.605 449.034, 460.404 465.224, 484.217 492 C 503.696 513.903, 519.075 528.807, 536.037 542.221 C 546.504 550.499, 565.343 564, 566.425 564 C 566.736 564, 563.575 559.410, 559.399 553.799 C 514.936 494.056, 482.415 419.076, 470.570 349 C 465.966 321.758, 464.647 306.153, 464.571 278 L 464.500 251.500 453.500 251.841 C 447.450 252.029, 442.347 252.332, 442.160 252.515 C 441.973 252.698, 442.287 268.475, 442.859 287.577 C 443.996 325.551, 443.892 326.580, 438.486 330.832 C 432.913 335.216, 423.248 333.062, 419.823 326.672 C 419.048 325.227, 418.254 310.115, 417.450 281.500 C 416.140 234.829, 416.134 234.910, 421.449 230 C 423.997 227.646, 424.909 227.481, 437.077 227.171 L 450 226.841 450 213.825 C 450 199.532, 450.846 196.703, 456.040 193.636 C 459.936 191.334, 466.144 191.538, 469.368 194.075 C 472.398 196.459, 472.139 196.867, 474.490 186 C 483.978 142.142, 504.737 102.856, 534.860 71.750 C 541.370 65.028, 543.712 62.023, 542.401 62.075 C 541.355 62.117, 535.757 63.424, 529.959 64.980 M 380.928 89.102 C 367.439 98.366, 354.117 109.872, 345.238 119.926 L 339.500 126.424 353.737 115.558 C 370.480 102.780, 391.307 84, 388.735 84 C 388.527 84, 385.013 86.296, 380.928 89.102 M 667.581 667.750 C 669.166 678.449, 672.688 684.561, 679.605 688.614 C 684.920 691.729, 694.321 692.813, 700.807 691.058 C 709.645 688.666, 716.313 679.696, 717.639 668.414 L 718.275 663 712.267 663 L 706.258 663 705.574 668.156 C 704.284 677.880, 700.229 682, 691.950 682 C 686.563 682, 681.471 677.289, 680.521 671.429 C 679.064 662.436, 679.573 663, 672.920 663 L 666.877 663 667.581 667.750 M 319.500 669.138 C 290.395 671.650, 276.871 678.106, 269.973 692.781 C 264.749 703.895, 261.373 726.089, 262.487 742 C 264.288 767.719, 271.126 781.851, 284.928 788.381 C 290.765 791.142, 292.509 791.491, 300.521 791.495 C 308.700 791.500, 310.164 791.194, 316.206 788.219 C 327.162 782.826, 335.328 771.896, 338.116 758.894 C 338.744 755.965, 339.049 748.966, 338.806 743.066 C 338.446 734.319, 337.909 731.481, 335.701 726.659 C 331.606 717.714, 327.721 713.480, 320.215 709.785 C 314.153 706.801, 312.708 706.500, 304.437 706.500 C 295.758 706.500, 294.938 706.696, 286.926 710.677 C 282.304 712.975, 278.340 714.673, 278.118 714.451 C 277.225 713.559, 280.182 702.173, 282.586 697.249 C 284.497 693.332, 286.304 691.320, 289.696 689.332 C 295.497 685.933, 306.471 683.319, 318.253 682.531 C 323.339 682.191, 328.962 681.687, 330.750 681.411 L 334 680.909 334 674.455 C 334 668.387, 333.865 668.008, 331.750 668.137 C 330.512 668.213, 325 668.663, 319.500 669.138 M 54.181 703.750 C 52.365 748.502, 49.888 762.787, 42.557 770.786 C 39.909 773.676, 38.507 774.341, 34.188 774.756 L 29 775.254 29 782.060 C 29 789.945, 29.888 790.694, 37.825 789.503 C 44.239 788.542, 48.861 785.959, 53.843 780.554 C 63.519 770.057, 66.758 753.605, 68.571 705.750 L 69.243 688 89.122 688 L 109 688 109 738.500 L 109 789 116.500 789 L 124 789 124 731.500 L 124 674 89.694 674 L 55.388 674 54.181 703.750 M 202.500 702.336 C 195.634 704.616, 192.459 706.717, 187.216 712.454 C 181.915 718.255, 178.404 725.775, 177.326 733.640 L 176.728 738 168.864 738 L 161 738 161 720.500 L 161 703 153.500 703 L 146 703 146 746 L 146 789 153.500 789 L 161 789 161 769.500 L 161 750 168.455 750 L 175.909 750 176.515 753.750 C 179.601 772.861, 185.889 782.936, 198.253 788.582 C 203.618 791.033, 205.770 791.440, 213.500 791.468 C 225.509 791.511, 231.330 789.440, 238.896 782.436 C 248.280 773.748, 252 763.283, 252 745.574 C 252 725.819, 244.540 711.024, 231.304 704.530 C 226.416 702.131, 224.002 701.628, 216 701.344 C 209.905 701.128, 205.066 701.483, 202.500 702.336 M 881.268 702.899 C 864.880 708.973, 855.963 724.347, 856.017 746.434 C 856.068 766.907, 864.235 782.052, 878.880 788.831 C 883.731 791.076, 885.869 791.436, 894.500 791.457 C 903.427 791.480, 905.169 791.174, 910.734 788.612 C 925.337 781.888, 933.031 767.174, 932.983 746.066 C 932.936 725.621, 925.103 710.681, 911 704.136 C 903.444 700.630, 889.011 700.029, 881.268 702.899 M 977.758 702.947 C 975.150 703.966, 970.763 706.420, 968.008 708.399 L 963 711.997 963 707.498 L 963 703 955.500 703 L 948 703 948 762 L 948 821 955.500 821 L 963 821 963 803.393 C 963 787.016, 963.122 785.836, 964.750 786.508 C 972.920 789.876, 977.719 791, 983.938 791 C 1005.226 791, 1019.337 774.675, 1020.733 748.432 C 1021.930 725.936, 1014.978 709.643, 1001.500 703.353 C 995.152 700.390, 984.754 700.213, 977.758 702.947 M 1056.870 702.509 C 1050.546 704.533, 1043.213 709.648, 1039.367 714.718 C 1027.936 729.788, 1027.276 759.289, 1037.997 775.995 C 1051.121 796.447, 1084.709 797.251, 1098.926 777.453 C 1104.415 769.810, 1106.269 763.079, 1106.764 749 C 1107.583 725.683, 1101.358 712.240, 1086.310 704.832 C 1080.552 701.997, 1078.535 701.544, 1070.602 701.303 C 1064.604 701.121, 1059.921 701.532, 1056.870 702.509 M 0 708 C 0 712.667, 0.333 714, 1.500 714 C 2.801 714, 3 718.111, 3 745 C 3 771.889, 2.801 776, 1.500 776 C 0.335 776, 0 777.328, 0 781.952 L 0 787.905 6.250 788.202 L 12.500 788.500 12.785 798.750 L 13.070 809 19.535 809 L 26 809 26 792.500 L 26 776 21.500 776 L 17 776 17 739 L 17 702 8.500 702 L 0 702 0 708 M 355 746 L 355 789 361.750 788.995 L 368.500 788.990 387.989 757.907 C 398.707 740.811, 407.820 726.611, 408.239 726.353 C 408.657 726.094, 409 740.084, 409 757.441 L 409 789 416 789 L 423 789 423 746 L 423 703 416.250 703.042 L 409.500 703.085 391 732.701 C 380.825 748.990, 371.727 763.259, 370.783 764.409 C 369.153 766.395, 369.065 764.902, 369.033 734.750 L 369 703 362 703 L 355 703 355 746 M 445 745.961 L 445 789 451.487 789 L 457.973 789 458.237 755.336 L 458.500 721.673 468.715 743.586 L 478.931 765.500 484.215 765.787 L 489.500 766.073 499.422 744.787 C 504.880 733.079, 509.717 723.072, 510.172 722.550 C 510.628 722.027, 511 736.765, 511 755.300 L 511 789 518 789 L 525 789 525 746 L 525 703 516.121 703 L 507.241 703 500.247 718.250 C 496.400 726.638, 491.558 737.212, 489.487 741.750 C 487.416 746.288, 485.401 750, 485.008 750 C 484.616 750, 479.343 739.538, 473.290 726.750 L 462.286 703.500 453.643 703.211 L 445 702.922 445 745.961 M 546 746.070 L 546 789.140 567.750 788.820 C 587.960 788.523, 589.854 788.337, 594.500 786.199 C 605.136 781.303, 609.956 773.913, 609.956 762.500 C 609.956 754.314, 607.924 749.094, 602.872 744.301 C 596.937 738.670, 593.154 737.661, 576.250 737.201 L 561 736.786 561 719.893 L 561 703 553.500 703 L 546 703 546 746.070 M 621 746 L 621 789 628 789 L 635 789 635 746 L 635 703 628 703 L 621 703 621 746 M 657 746.046 L 657 789.091 663.668 788.796 L 670.336 788.500 689.918 757.257 C 700.688 740.073, 709.837 726.011, 710.250 726.007 C 710.663 726.003, 711 740.175, 711 757.500 L 711 789 718 789 L 725 789 725 746 L 725 703 718.128 703 L 711.257 703 691.378 734.606 L 671.500 766.212 671.236 734.606 L 670.972 703 663.986 703 L 657 703 657 746.046 M 796 746 L 796 789 803 789 L 810 789 810 752.500 L 810 716 830.500 716 L 851 716 851 709.500 L 851 703 823.500 703 L 796 703 796 746 M 1134.715 715.250 C 1133.771 735.311, 1129.421 754.728, 1122.526 769.650 C 1119.386 776.446, 1118.899 777, 1116.065 777 L 1113 777 1113 793.500 L 1113 810 1119.500 810 L 1126 810 1126 799.500 L 1126 789 1148 789 L 1170 789 1170 783 L 1170 777 1151.565 777 L 1133.130 777 1136.526 769.650 C 1142.146 757.486, 1147.972 733.864, 1148.014 723.074 C 1148.045 714.985, 1148.022 715, 1159.617 715 L 1170 715 1170 709 L 1170 703 1152.645 703 L 1135.291 703 1134.715 715.250 M 206.921 714.313 C 201.731 716.247, 198.948 718.444, 195.854 723.052 C 192.065 728.693, 190.721 736.305, 191.199 749.405 C 191.670 762.310, 193.998 769.035, 199.737 774.074 C 204.289 778.070, 207.202 779.101, 214.045 779.133 C 221.277 779.168, 225.587 777.318, 230.210 772.194 C 235.267 766.590, 237.167 759.573, 237.167 746.500 C 237.167 725.034, 230.149 714.285, 215.500 713.312 C 212.750 713.129, 208.890 713.580, 206.921 714.313 M 886.615 714.411 C 881.282 716.396, 875.404 722.415, 873.428 727.917 C 871.253 733.972, 870.410 751.841, 871.950 759.259 C 873.477 766.616, 878.316 773.822, 883.727 776.799 C 889.285 779.857, 899.079 780.025, 904.667 777.160 C 913.768 772.493, 917.192 765.128, 917.800 748.910 C 918.464 731.208, 914.794 721.063, 905.921 716.076 C 900.802 713.199, 891.929 712.434, 886.615 714.411 M 1060.625 714.469 C 1051.650 717.668, 1046.322 727.057, 1045.305 741.463 C 1043.644 765.007, 1052.504 779.212, 1068.802 779.134 C 1076.436 779.097, 1080.552 777.357, 1085.210 772.194 C 1096.310 759.893, 1094.818 726.650, 1082.765 717.700 C 1076.384 712.962, 1068.202 711.768, 1060.625 714.469 M 977.870 715.565 C 975.324 716.349, 971.049 718.455, 968.370 720.245 L 963.500 723.500 963.233 748.672 L 962.966 773.844 968.733 776.008 C 973.333 777.735, 976.152 778.105, 982.665 777.836 C 989.854 777.540, 991.346 777.137, 995.152 774.461 C 998.019 772.446, 1000.472 769.473, 1002.436 765.633 C 1005.112 760.401, 1005.437 758.705, 1005.819 747.998 C 1006.174 738.046, 1005.909 735.059, 1004.164 729.315 C 1000.228 716.355, 990.991 711.525, 977.870 715.565 M 291.024 720.541 C 288.013 721.385, 283.560 723.240, 281.130 724.664 L 276.711 727.254 277.319 740.377 C 278.581 767.644, 285.786 779.141, 301.611 779.142 C 311.044 779.143, 317.258 774.811, 321.899 765 C 324.213 760.108, 324.500 758.277, 324.500 748.429 C 324.500 738.086, 324.302 736.971, 321.485 731.463 C 317.500 723.672, 312.066 720.159, 302.953 719.485 C 298.814 719.179, 294.536 719.558, 291.024 720.541 M 561 762.986 L 561 778.247 572.812 777.825 C 582.190 777.491, 585.310 777.002, 587.957 775.452 C 595.205 771.208, 597.543 764.277, 594.243 756.817 C 591.388 750.362, 587.539 748.818, 572.778 748.211 L 561 747.725 561 762.986 M 2.264 821.718 C 3.784 821.947, 6.034 821.941, 7.264 821.704 C 8.494 821.467, 7.250 821.279, 4.500 821.286 C 1.750 821.294, 0.744 821.488, 2.264 821.718 M 11.269 821.693 C 12.242 821.947, 13.592 821.930, 14.269 821.656 C 14.946 821.382, 14.150 821.175, 12.500 821.195 C 10.850 821.215, 10.296 821.439, 11.269 821.693 " stroke="none" fill="black" fill-rule="evenodd"/>
	<path fill-opacity="0.114" d="M 27 410.448 L 27 820.895 21.750 821.263 L 16.500 821.630 22.250 821.815 L 28 822 28 411 C 28 184.950, 27.775 0, 27.500 0 C 27.225 0, 27 184.701, 27 410.448 M 469.500 50.660 C 461.641 51.604, 441.430 55.267, 440.879 55.846 C 440.538 56.206, 439.971 57.719, 439.620 59.209 L 438.983 61.917 448.991 61.308 C 454.496 60.972, 459 60.961, 459 61.283 C 459 61.605, 454.467 64.239, 448.927 67.136 C 443.387 70.034, 438.497 73.101, 438.061 73.952 C 437.625 74.803, 436.962 77.903, 436.588 80.841 L 435.907 86.181 444.204 79.709 C 455.515 70.885, 470.301 61.714, 483.493 55.338 L 494.500 50.018 483.500 50.159 C 477.450 50.236, 471.150 50.462, 469.500 50.660 M 529.409 65.485 C 502.228 73.056, 481.202 83.741, 459.610 100.956 C 450.358 108.333, 437.076 120.854, 432.869 126.165 L 429.911 129.900 415.456 234.944 C 407.505 292.719, 401 341.523, 401 343.398 C 401 349.955, 413.887 383.692, 424.550 405.053 C 434.344 424.672, 448.099 446.841, 461.694 464.919 C 471.959 478.570, 502.130 512.059, 513.744 522.695 C 519.660 528.112, 529.005 536.182, 534.512 540.628 C 544.212 548.461, 564.239 563, 565.329 563 C 565.624 563, 562.990 559.143, 559.475 554.429 C 515.376 495.278, 482.567 419.959, 470.645 350.500 C 465.844 322.528, 464.635 308.359, 464.565 279.252 L 464.500 252.004 453.151 252.002 L 441.803 252 442.384 263.250 C 443.863 291.906, 444.174 321.944, 443.026 325.421 C 440.659 332.594, 430.134 335.938, 423.534 331.615 C 418.591 328.375, 418.347 326.431, 417.088 280.289 C 415.814 233.604, 415.765 234.237, 420.977 229.521 C 422.803 227.869, 425.225 227.435, 435.829 226.860 C 442.798 226.482, 448.837 226.134, 449.250 226.087 C 449.663 226.039, 450 219.880, 450 212.400 L 450 198.800 453.400 195.400 C 456.384 192.416, 457.429 192, 461.935 192 C 464.969 192, 468.075 192.658, 469.525 193.608 C 472.322 195.441, 472.155 195.685, 474.035 187 C 483.748 142.126, 504.395 102.742, 534.716 71.250 C 539.615 66.162, 543.145 62.026, 542.561 62.058 C 541.978 62.091, 536.059 63.632, 529.409 65.485 M 392.977 400 C 392.909 400.275, 390.238 418.950, 387.041 441.500 L 381.228 482.500 389.364 490.286 C 431.386 530.499, 480.711 562.203, 535.330 584.106 C 548.373 589.336, 568.751 596.336, 567.497 595.155 C 566.949 594.639, 559.975 589.974, 552 584.789 C 522.570 565.653, 488.429 536.052, 464.589 509 C 437.963 478.787, 414.419 443.859, 398.868 411.500 C 395.696 404.900, 393.045 399.725, 392.977 400 M 668.250 668.822 C 669.107 678.268, 673.779 685.324, 682 689.587 C 687.215 692.291, 699.167 692.091, 704.692 689.207 C 711.685 685.556, 716.139 678.258, 717.483 668.250 L 718.188 663 712.221 663 L 706.254 663 705.797 667.759 C 704.875 677.357, 700.281 682.366, 692.510 682.249 C 684.566 682.129, 681.042 678.207, 679.482 667.750 L 678.773 663 673.248 663 L 667.722 663 668.250 668.822 M 323.500 669.192 C 300.866 670.758, 288.857 673.818, 280.613 680.119 C 268.717 689.212, 263 707.040, 263 735.043 C 263 758.776, 267.400 773.360, 277.421 782.837 C 283.913 788.977, 290.671 791.419, 301.070 791.383 C 307.362 791.361, 309.727 790.848, 315.073 788.347 C 323.014 784.630, 329.895 777.898, 333.858 769.968 C 338.007 761.666, 339.338 754.319, 338.746 743.004 C 338.067 730.019, 335.395 723.233, 328.087 715.933 C 316.509 704.367, 299.568 703.090, 283.607 712.581 L 277.715 716.085 278.364 710.563 C 279.714 699.074, 284.129 691.403, 291.500 687.736 C 296.279 685.359, 307.826 683.104, 321.136 681.948 C 327.912 681.360, 333.601 680.733, 333.778 680.555 C 333.956 680.377, 333.966 677.592, 333.801 674.366 L 333.500 668.500 323.500 669.192 M 54.655 697.750 C 52.964 758.196, 48.312 774.983, 33.250 774.996 L 29 775 29 782.109 L 29 789.219 36.437 788.843 C 42.748 788.524, 44.522 788.012, 48.155 785.458 C 62.576 775.323, 65.921 761.599, 68.558 701.750 L 69.208 687 89.104 687 L 109 687 109 738 L 109 789 116.500 789 L 124 789 124 731.500 L 124 674 89.660 674 L 55.320 674 54.655 697.750 M 203.286 702.386 C 189.377 706.946, 180.665 717.393, 177.764 732.991 L 176.633 739.075 168.567 738.787 L 160.500 738.500 160.227 720.750 L 159.954 703 153.477 703 L 147 703 147 746 L 147 789 153.500 789 L 160 789 160 769.500 L 160 750 168.500 750 L 177 750 177.012 753.750 C 177.042 763.242, 182.051 774.955, 189.090 781.994 C 195.718 788.622, 202.793 791.252, 214 791.252 C 231.736 791.252, 243.723 782.421, 249.634 765 C 252.554 756.394, 252.294 735.799, 249.151 726.696 C 243.541 710.450, 232.607 702.067, 216.120 701.369 C 210.546 701.133, 206.011 701.493, 203.286 702.386 M 883.929 702.303 C 868.940 706.556, 859.552 718.523, 856.978 736.658 C 853.312 762.484, 863.562 783.933, 882.500 790.067 C 888.212 791.917, 901.476 791.711, 907.500 789.679 C 918.246 786.054, 926.934 776.464, 930.763 764 C 933.397 755.427, 933.043 735.477, 930.109 727.083 C 924.401 710.751, 913.214 702.159, 896.656 701.387 C 891.805 701.160, 886.648 701.532, 883.929 702.303 M 979.287 702.866 C 976.420 703.857, 971.589 706.317, 968.553 708.334 C 965.516 710.350, 962.799 712, 962.515 712 C 962.232 712, 962 709.975, 962 707.500 L 962 703 955.500 703 L 949 703 949 762 L 949 821 955.500 821 L 962 821 962 803 C 962 793.100, 962.171 785, 962.379 785 C 962.588 785, 965.400 786.233, 968.629 787.740 C 973.748 790.128, 975.717 790.477, 984 790.461 C 992.402 790.444, 994.111 790.124, 998.784 787.687 C 1005.328 784.275, 1011.384 778.146, 1014.743 771.534 C 1025.120 751.112, 1021.654 719.419, 1007.741 707.510 C 1000.379 701.208, 989.313 699.402, 979.287 702.866 M 1056.801 702.930 C 1046.247 706.304, 1037.815 714.617, 1033.790 725.614 C 1031.196 732.702, 1030.167 751.673, 1031.919 760.105 C 1036.416 781.740, 1054.066 794.449, 1074.947 791.086 C 1095.734 787.738, 1106.970 772.094, 1106.970 746.500 C 1106.970 729.811, 1102.864 718.732, 1093.508 710.181 C 1084.091 701.575, 1069.842 698.760, 1056.801 702.930 M 0 708 C 0 712.667, 0.333 714, 1.500 714 C 2.802 714, 3 718.167, 3 745.500 C 3 772.833, 2.802 777, 1.500 777 C 0.348 777, 0 778.278, 0 782.500 L 0 788 6.500 788 L 13 788 13 798.500 L 13 809 19.500 809 L 26 809 26 793 L 26 777 21.500 777 L 17 777 17 739.500 L 17 702 8.500 702 L 0 702 0 708 M 355 746.046 L 355 789.091 361.723 788.796 L 368.446 788.500 388.473 756.575 L 408.500 724.650 408.764 756.825 L 409.028 789 416.014 789 L 423 789 423 745.954 L 423 702.909 416.390 703.204 L 409.779 703.500 389.640 735.494 L 369.500 767.487 369.236 735.244 L 368.972 703 361.986 703 L 355 703 355 746.046 M 445 746 L 445 789 451.500 789 L 458 789 458 755.333 C 458 736.817, 458.322 721.989, 458.716 722.382 C 459.109 722.776, 463.766 732.414, 469.064 743.799 L 478.696 764.500 484.170 764.795 L 489.645 765.089 499.537 743.971 C 504.978 732.356, 509.783 722.634, 510.215 722.367 C 510.647 722.100, 511 736.984, 511 755.441 L 511 789 518 789 L 525 789 525 746 L 525 703 516.232 703 L 507.464 703 496.542 727 C 490.534 740.200, 485.347 751, 485.014 751 C 484.681 751, 479.303 740.200, 473.062 727 L 461.716 703 453.358 703 L 445 703 445 746 M 547 746 L 547 789 565.684 789 C 587.109 789, 592.659 787.938, 600.326 782.373 C 611.481 774.277, 613.446 756.722, 604.383 746.134 C 598.686 739.478, 592.944 737.718, 575.250 737.202 L 560 736.757 560 719.878 L 560 703 553.500 703 L 547 703 547 746 M 621 746 L 621 789 628 789 L 635 789 635 746 L 635 703 628 703 L 621 703 621 746 M 657 746 L 657 789 663.380 789 L 669.761 789 689.425 757.531 C 700.241 740.223, 709.520 725.797, 710.045 725.472 C 710.644 725.102, 711 736.829, 711 756.941 L 711 789 718 789 L 725 789 725 746 L 725 703 718.250 703.022 L 711.500 703.043 691.500 734.925 L 671.500 766.806 671.236 734.903 L 670.972 703 663.986 703 L 657 703 657 746 M 796 746 L 796 789 803 789 L 810 789 810 752 L 810 715 830.500 715 L 851 715 851 709 L 851 703 823.500 703 L 796 703 796 746 M 1135.977 703.750 C 1135.965 704.163, 1135.519 710.125, 1134.987 717 C 1133.333 738.370, 1129.061 756.606, 1122.445 770.549 C 1119.223 777.338, 1118.646 778, 1115.954 778 L 1113 778 1113 794 L 1113 810 1119.500 810 L 1126 810 1126 799.500 L 1126 789 1148 789 L 1170 789 1170 783.500 L 1170 778 1151.500 778 C 1141.262 778, 1133 777.600, 1133 777.104 C 1133 776.611, 1134.557 772.898, 1136.460 768.854 C 1142.438 756.150, 1148 732.179, 1148 719.122 L 1148 715 1159 715 L 1170 715 1170 709 L 1170 703 1153 703 C 1143.650 703, 1135.990 703.337, 1135.977 703.750 M 205.007 714.593 C 203.086 715.426, 200.454 717.096, 199.158 718.304 C 188.699 728.053, 187.178 757.549, 196.445 770.921 C 203.102 780.527, 218.113 782.647, 227.765 775.346 C 239.579 766.408, 241.438 733.425, 230.849 720.621 C 229.085 718.487, 225.810 715.910, 223.571 714.893 C 218.609 712.639, 209.839 712.498, 205.007 714.593 M 886.685 714.017 C 876.209 717.161, 870.869 727.921, 870.826 745.971 C 870.788 762.257, 875.345 772.954, 884.350 777.719 C 889.363 780.371, 900.457 780.018, 905.736 777.038 C 913.006 772.935, 916.505 766.396, 918.058 754.014 C 919.898 739.335, 916.214 724.029, 909.401 718.047 C 904.162 713.447, 894.370 711.710, 886.685 714.017 M 1058.306 715.535 C 1048.549 720.397, 1044.402 731.038, 1045.272 748.988 C 1045.900 761.946, 1047.915 767.968, 1053.490 773.543 C 1062.938 782.990, 1079.504 781.491, 1087.215 770.492 C 1093.239 761.899, 1094.703 740.230, 1090.090 727.949 C 1085.099 714.661, 1071.061 709.179, 1058.306 715.535 M 976.500 715.802 C 973.750 716.758, 969.355 719.020, 966.733 720.830 L 961.965 724.120 962.233 748.810 L 962.500 773.500 966.143 775.281 C 968.146 776.261, 972.491 777.539, 975.799 778.121 C 987.875 780.249, 997.479 775.909, 1002.463 766.073 C 1007.858 755.426, 1007.754 735.022, 1002.248 724 C 997.626 714.749, 988.185 711.743, 976.500 715.802 M 290 720.564 C 287.525 721.347, 283.700 723.016, 281.500 724.273 L 277.500 726.558 277.201 736.529 C 276.475 760.748, 283.444 776.166, 296.431 779.072 C 307.177 781.477, 316.518 776.772, 321.592 766.401 C 325.180 759.069, 326.133 744.410, 323.592 735.668 C 321.518 728.533, 315.343 721.715, 309.500 720.110 C 304.106 718.628, 295.482 718.829, 290 720.564 M 560 763 L 560 778.201 572.750 777.850 C 587.296 777.451, 591.194 776.021, 594.248 769.966 C 597.794 762.938, 595.457 754.287, 589 750.534 C 586.093 748.845, 583.339 748.441, 572.750 748.150 L 560 747.799 560 763 M 2.264 821.718 C 3.784 821.947, 6.034 821.941, 7.264 821.704 C 8.494 821.467, 7.250 821.279, 4.500 821.286 C 1.750 821.294, 0.744 821.488, 2.264 821.718 " stroke="none" fill="black" fill-rule="evenodd"/>
	<path fill-opacity="0.806" d="M 27 410.445 L 27 820.890 22.250 821.265 L 17.500 821.640 22.750 821.820 L 28 822 28 411 C 28 184.950, 27.775 0, 27.500 0 C 27.225 0, 27 184.700, 27 410.445 M 1.269 821.693 C 2.242 821.947, 3.592 821.930, 4.269 821.656 C 4.946 821.382, 4.150 821.175, 2.500 821.195 C 0.850 821.215, 0.296 821.439, 1.269 821.693 " stroke="none" fill="black" fill-rule="evenodd"/>
</svg>